<svg width="126" height="38" viewBox="0 0 126 38" fill="none" xmlns="http://www.w3.org/2000/svg">
<g clip-path="url(#clip0_186_783)">
<path d="M38 0H0V38H38V0Z" fill="#545454"/>
<path d="M19.0627 12.2233V16.3399H26.0293L24.8893 18.8099H19.0627V20.7099H24.066L22.926 23.1799H19.0627V30.7166H14.6927V23.1799H12.2227V20.7099H14.6927V18.8099H12.2227V16.3399H14.6927V8.61328H26.0293V12.2233" fill="white"/>
<path d="M44.8398 18.5566V20.6466H46.6132V27.2333H50.3498V20.6466H53.8965L54.8465 18.5566H50.3498V17.3533H55.3532L56.3032 15.2633H50.3498V11.7166H56.3032V8.61327H46.6132V15.1999H44.8398V17.2899H46.6132V18.4933M57.8865 15.1366H61.6232V27.1699H57.8865M59.7865 8.16993C58.6465 8.16993 57.8232 9.18327 57.8232 10.1966C57.8232 11.1466 58.6465 12.1599 59.7865 12.1599C60.8632 12.1599 61.7498 11.2099 61.7498 10.1333C61.7498 9.0566 60.7998 8.16993 59.7865 8.16993ZM72.4532 16.7199V8.54993H75.8098V27.1699H72.5798V25.4599H72.5165C71.5665 26.9166 70.1732 27.4866 68.5898 27.4866C65.2332 27.4866 62.9532 24.4466 62.9532 21.0899C62.9532 17.7333 65.1065 14.7566 68.5898 14.7566C70.1098 14.7566 71.2498 15.2633 72.3898 16.7199M72.5798 21.1533C72.5798 19.3166 71.5665 17.6066 69.4765 17.6066C67.5132 17.6066 66.4998 19.3799 66.4998 21.1533C66.4998 23.0533 67.5765 24.6999 69.5398 24.6999C71.5032 24.6999 72.5798 23.1166 72.5798 21.0899M89.3632 22.0399H80.5598C80.6865 23.4333 81.5732 24.8266 83.3465 24.8266C84.4232 24.8266 85.3098 24.3199 85.7532 23.3699L89.0465 23.6233C88.2865 26.0933 86.0698 27.3599 83.2198 27.3599C79.5465 27.3599 77.0132 24.8899 77.0132 21.0266C77.0132 17.0999 79.5465 14.6299 83.2198 14.6299C86.8298 14.6299 89.3632 17.0999 89.3632 21.0266M86.0065 19.8233C85.8798 18.6199 84.9932 17.2266 83.3465 17.2266C81.5732 17.2266 80.7498 18.4299 80.5598 19.8233M90.6298 27.0433H93.9865V8.42327H90.6298M95.6332 27.0433H99.0532V14.9466H95.6332M97.3432 8.04327C96.2032 8.04327 95.3798 9.0566 95.3798 10.0699C95.3798 11.0199 96.2032 12.0333 97.3432 12.0333C98.4198 12.0333 99.3065 11.0833 99.3065 10.0066C99.3065 8.92993 98.3565 8.04327 97.3432 8.04327ZM107.097 24.3833C106.907 24.4466 106.717 24.4466 106.4 24.4466C105.513 24.4466 105.323 24.1933 105.323 23.6233V17.5433H107.097V14.9466H105.323V11.1466H101.903V14.9466H100.383V17.5433H101.903V24.0033C101.903 26.5999 103.233 27.1699 105.45 27.1699C106.02 27.1699 106.527 27.1066 107.097 27.0433M111.277 30.4633H114.823L120.713 14.9466H116.977L114.38 22.9266L111.783 14.9466H108.047L112.607 27.0433M49.5265 37.8733H48.7665L48.1965 35.6566L47.6265 37.8733H46.8665L45.9798 34.6433H46.7398L47.2465 36.9866L47.7532 34.6433H48.5132L49.0198 36.9233L49.5265 34.5799H50.2865M52.6932 34.5166C53.7698 34.5166 54.3398 35.3399 54.3398 36.1633C54.3398 37.0499 53.7698 37.8099 52.6932 37.8099C51.6165 37.8099 51.0465 36.9866 51.0465 36.1633C51.0465 35.2766 51.6165 34.5166 52.6932 34.5166ZM52.6932 35.0866C52.0598 35.0866 51.7432 35.6566 51.7432 36.1633C51.7432 36.6699 52.0598 37.2399 52.6932 37.2399C53.3265 37.2399 53.6432 36.7333 53.6432 36.1633C53.6432 35.6566 53.3265 35.0866 52.6932 35.0866ZM57.9498 37.8099H57.1265L56.4932 36.5433H56.1132V37.8099H55.4165V34.5799H56.6832C57.3798 34.5799 57.8232 34.9599 57.8232 35.5299C57.8232 35.8466 57.6332 36.2899 57.1898 36.4166M56.1132 35.1499V35.9733H56.5565C57.0632 35.9733 57.1265 35.7199 57.1265 35.5299C57.1265 35.2766 56.9365 35.0866 56.5565 35.0866M60.8632 37.7466H58.8365V34.5166H59.5332V37.1133H60.8632M61.8132 37.7466V34.5166H63.0798C64.1565 34.5166 64.7265 35.0866 64.7265 36.0999C64.7265 37.2399 63.9032 37.6833 63.1432 37.6833M62.5098 35.0233V37.1133H63.0798C63.7765 37.1133 64.0298 36.5433 64.0298 36.0366C64.0298 35.6566 63.9032 35.0233 63.0165 35.0233M68.9698 37.6833H68.2098L67.6398 35.4666L67.1332 37.6833H66.3732L65.4865 34.4533H66.2465L66.7532 36.7333L67.2598 34.3899H68.0198L68.5898 36.6699L69.0965 34.3266H69.7932M71.4398 37.5566H70.7432V34.3266H71.4398M72.6432 37.5566V34.3266H73.9098C74.9865 34.3266 75.5565 34.8966 75.5565 35.9099C75.5565 37.0499 74.7332 37.4933 73.9732 37.5566M73.3398 34.8966V36.9866H73.9098C74.6065 36.9866 74.8598 36.4166 74.8598 35.9099C74.8598 35.5299 74.7332 34.8966 73.8465 34.8966M78.7865 37.5566H76.5698V34.3266H78.7865V34.8966H77.3298V35.5933H78.7232V36.1633H77.3298V36.9233H78.7865M82.2065 37.5566H81.5098V34.3266H82.2065M86.1965 37.5566H85.4998L84.1065 35.4033V37.5566H83.4098V34.3266H84.1698L85.5632 36.4166V34.2633H86.1965M88.9198 37.4933H88.1598L87.0832 34.2633H87.8432L88.5398 36.6066L89.2365 34.2633H89.9965M93.0365 37.4933H90.8198V34.2633H93.0365V34.8333H91.5165V35.5299H92.9732V36.0999H91.5165V36.8599H93.0365M95.6965 35.0866C95.6965 34.8966 95.4432 34.7699 95.1898 34.7699C94.8732 34.7699 94.6832 34.8966 94.6832 35.0866C94.6832 35.2766 94.8732 35.4033 95.0632 35.4666L95.6965 35.6566C96.2032 35.8466 96.4565 36.0999 96.4565 36.5433C96.4565 36.8599 96.2032 37.5566 95.1898 37.5566C94.0498 37.5566 93.9232 36.8599 93.9232 36.5433H94.6198C94.6198 36.9866 94.9998 36.9866 95.1898 36.9866C95.4432 36.9866 95.7598 36.8599 95.7598 36.6699C95.7598 36.5433 95.6965 36.4166 95.3165 36.2899L94.6198 36.0366C94.2398 35.9099 93.9865 35.5933 93.9865 35.2133C93.9865 34.8966 94.2398 34.1999 95.1265 34.1999C96.3932 34.1999 96.3932 35.0866 96.3932 35.0866M98.8632 37.4933H98.1665V34.8966H97.2798V34.3266H99.7498V34.8966H98.8632M104.183 37.5566H103.55V35.4033L102.663 37.5566H102.22L101.333 35.4666V37.5566H100.7V34.3266H101.46L102.473 36.4799L103.423 34.3266H104.183M107.54 37.5566H105.387V34.3266H107.54V34.8966H106.083V35.5933H107.54V36.2266H106.083V36.9233H107.54M111.34 37.5566H110.643L109.25 35.4033V37.5566H108.553V34.3266H109.313L110.707 36.4166V34.3266H111.34M113.873 37.5566H113.177V34.8966H112.29V34.3266H114.76V34.8966H113.873M121.41 6.45993H120.777V6.0166H122.55V6.45993H121.917V8.42327H121.41M124.957 6.83993L124.323 8.42327H124.007L123.373 6.83993V8.42327H122.93V6.0166H123.5L124.133 7.66327L124.83 6.0166H125.4V8.42327H124.957" fill="#F7F7F7"/>
</g>
<defs>
<clipPath id="clip0_186_783">
<rect width="125.4" height="38" fill="white"/>
</clipPath>
</defs>
</svg>
