<svg width="155" height="39" viewBox="0 0 155 39" fill="none" xmlns="http://www.w3.org/2000/svg">
<path fill-rule="evenodd" clip-rule="evenodd" d="M11.5154 2.66508C14.8376 6.81869 18.4852 12.0369 19.0752 12.8809C19.1067 12.9259 19.1295 12.9585 19.143 12.9778C19.4575 13.4256 19.7172 13.7585 19.9143 14.0112L19.9144 14.0113C20.3521 14.5725 20.482 14.739 20.2208 14.8919C20.0101 15.0153 19.7928 15.056 19.5759 15.056C19.3306 15.056 19.0543 14.9343 18.8531 14.7377C18.7108 14.5987 17.7376 13.1427 16.4124 11.0246C15.3985 9.40383 14.5499 8.05936 14.5268 8.03685C14.4732 7.98478 14.4741 7.98655 16.309 11.3685C17.4612 13.4922 18.2493 15.0615 18.2493 15.1619C18.2493 15.3661 18.1952 15.4735 17.9507 15.7545C17.543 16.2231 17.3607 16.7496 17.2291 17.8391C17.0816 19.0604 16.6669 19.9232 15.5175 21.3997C14.8447 22.2641 14.7346 22.4225 14.5649 22.7709C14.3511 23.2096 14.2922 23.4553 14.2684 24.0093C14.2432 24.5951 14.2923 24.9735 14.466 25.5334C14.6181 26.0237 14.7768 26.3475 15.1827 26.9951C15.5329 27.5537 15.7346 27.969 15.7346 28.1315C15.7346 28.2608 15.7585 28.2609 16.3012 28.1347C17.6 27.8325 18.6546 27.3013 19.2477 26.65C19.6148 26.2469 19.701 26.0244 19.7038 25.4721C19.7056 25.1108 19.6933 25.0352 19.5985 24.8274C19.4442 24.489 19.1632 24.2078 18.544 23.7718C17.7327 23.2004 17.3862 22.7405 17.2905 22.108C17.212 21.589 17.3031 21.2228 17.7519 20.2538C18.2164 19.2508 18.3316 18.8234 18.4094 17.8123C18.4597 17.1592 18.5294 16.9016 18.7116 16.6949C18.9016 16.4793 19.0726 16.4062 19.5428 16.34C20.3094 16.2322 20.7976 16.0278 21.1988 15.647C21.5469 15.3166 21.6925 14.9982 21.7149 14.5189L21.7319 14.1556L21.5374 13.922C20.8329 13.076 11.0436 2 11.0003 2C10.991 2 11.2228 2.2993 11.5154 2.66508ZM16.13 24.6721C16.2893 24.3815 16.2046 24.0081 15.9382 23.8255C15.6865 23.6531 15.2955 23.7344 15.2955 23.959C15.2955 24.0276 15.3323 24.0774 15.4152 24.1215C15.5549 24.1956 15.565 24.2788 15.4551 24.4489C15.3439 24.6213 15.3528 24.7727 15.4805 24.8756C15.6862 25.0416 15.9774 24.9503 16.13 24.6721ZM20.9237 8.82778C20.6095 8.77756 20.5962 8.77167 20.7441 8.74826C21.0275 8.70336 21.6967 8.76455 22.1579 8.87751C23.2345 9.14112 24.2141 9.81643 25.2598 11.0158L25.5376 11.3344L25.9351 11.2686C27.6093 10.9914 29.3126 11.2117 30.7372 11.8896C31.1291 12.0761 31.747 12.4474 31.8242 12.5428C31.8487 12.5732 31.894 12.7689 31.9245 12.9778C32.0303 13.7003 31.9774 14.2542 31.7628 14.6678C31.6462 14.8929 31.6397 14.9642 31.7181 15.1569C31.7807 15.3106 31.9554 15.4244 32.1284 15.4241C32.4824 15.4237 32.8634 14.8341 33.04 14.0139L33.1101 13.688L33.2491 13.8501C34.0111 14.7396 34.6097 15.9525 34.7125 16.8158L34.7393 17.0409L34.6112 16.8363C34.3907 16.4842 34.1693 16.2445 33.8856 16.0511C33.3743 15.7026 32.8336 15.584 31.4019 15.5063C30.1088 15.4361 29.377 15.3223 28.6513 15.0786C27.4165 14.6639 26.7942 14.1116 25.3274 12.1294C24.676 11.2489 24.2734 10.7618 23.8728 10.3695C22.9627 9.47816 22.0685 9.01069 20.9237 8.82778ZM32.1158 10.7936C32.1484 10.2036 32.2261 9.81446 32.3822 9.45909C32.444 9.31842 32.5019 9.20328 32.5108 9.20328C32.5198 9.20328 32.4929 9.30712 32.4511 9.434C32.3376 9.7789 32.3189 10.2506 32.3972 10.7995C32.4964 11.4959 32.5529 11.5963 33.2674 12.3486C33.6025 12.7014 33.9924 13.1464 34.1337 13.3375L34.3907 13.6849L34.1337 13.4366C33.8195 13.133 33.0968 12.5409 32.9372 12.4563C32.8302 12.3995 32.8142 12.4005 32.7483 12.4682C32.6875 12.5306 32.6746 12.6243 32.6661 13.0674C32.653 13.7579 32.5617 14.2012 32.3411 14.6444C32.2218 14.8841 32.203 14.8329 32.3109 14.5624C32.3915 14.3604 32.3997 14.2715 32.3991 13.603C32.3979 12.2598 32.243 11.9369 31.3351 11.3837C31.1053 11.2436 30.7263 11.0415 30.4931 10.9346C30.2601 10.8277 30.0748 10.7346 30.0815 10.7276C30.1073 10.7012 30.9927 10.9674 31.349 11.1086C31.8791 11.3187 31.9665 11.3459 32.0309 11.3206C32.074 11.3036 32.0949 11.1741 32.1158 10.7936ZM20.5869 9.76237C20.5015 10.7994 20.8962 12.1866 21.5342 13.0914C22.0288 13.7928 22.7954 14.3378 23.3614 14.3905C23.732 14.4249 23.8434 14.3054 23.6757 14.0532C23.4429 13.7031 23.1567 13.1639 23.0809 12.933C23.0338 12.7896 22.9316 12.366 22.8536 11.9917C22.5875 10.7137 22.3259 10.2161 21.7217 9.83804C21.5015 9.70027 21.0313 9.51999 20.7586 9.46875L20.6134 9.44144L20.5869 9.76237ZM31.3421 19.8253C28.3605 18.5887 27.3104 17.5154 27.3104 15.7043C27.3104 15.4377 27.3194 15.2197 27.3302 15.2197C27.3411 15.2197 27.4564 15.3076 27.5865 15.4151C28.1911 15.9147 28.8681 16.128 30.7425 16.4096C31.8453 16.5755 32.4659 16.7093 33.0385 16.905C34.8583 17.5267 35.9842 18.7882 36.2527 20.5068C36.3307 21.0061 36.285 21.9424 36.1585 22.4359C36.0586 22.8257 35.7538 23.5282 35.673 23.5552C35.6506 23.5627 35.6286 23.4743 35.6229 23.3539C35.5923 22.7086 35.2757 22.0804 34.7441 21.6098C34.1396 21.0747 33.3275 20.6489 31.3421 19.8253ZM29.1049 19.6892C29.1467 19.8177 29.2116 20.11 29.2488 20.339C29.4877 21.8031 28.7416 22.986 27.2904 23.4443C27.1368 23.4928 26.5316 23.6149 25.9456 23.7153C24.7593 23.9188 24.2299 24.0629 23.698 24.3268C23.3208 24.514 22.8641 24.7943 22.8912 24.8222C22.9 24.8312 22.9861 24.81 23.0825 24.7751C23.7533 24.5325 24.4997 24.4069 25.6339 24.3462C26.084 24.3222 26.5959 24.2837 26.7716 24.261C27.782 24.1299 28.4823 23.8137 29.0269 23.2427C29.3299 22.9249 29.5106 22.6289 29.6562 22.2116C29.7484 21.9468 29.7609 21.8484 29.7616 21.3794C29.7624 20.9014 29.7512 20.8139 29.6512 20.5199C29.5203 20.1345 29.3658 19.8452 29.1702 19.619L29.0288 19.4557L29.1049 19.6892ZM30.6157 22.8395C30.2195 21.9622 30.1286 21.1153 30.3455 20.3255C30.3688 20.241 30.4061 20.1719 30.4287 20.1719C30.4511 20.1719 30.5445 20.224 30.6363 20.2876C30.8188 20.4142 31.185 20.6274 32.1603 21.1752C33.3775 21.8588 34.0715 22.388 34.5434 22.9929C34.9566 23.5224 35.2124 24.1256 35.3354 24.8612C35.4052 25.2778 35.3644 26.2804 35.2606 26.6999C34.9334 28.0228 34.1728 29.0619 33.088 29.6683C32.9291 29.757 32.7864 29.8299 32.7709 29.8304C32.7555 29.8306 32.8134 29.679 32.8996 29.4932C33.2645 28.7074 33.306 27.943 33.0302 27.0923C32.8612 26.5714 32.5168 25.9357 31.8213 24.8613C31.0128 23.6123 30.8145 23.2799 30.6157 22.8395ZM23.1539 25.7167C21.8999 25.9265 20.5233 26.6101 19.4168 27.5724L19.0874 27.8589L19.3769 27.9056C20.8876 28.1484 21.2944 28.3639 22.3422 29.4759C22.9453 30.1156 23.1489 30.258 23.6491 30.3896C24.3837 30.5827 25.1078 30.2278 25.3562 29.5527C25.4672 29.2511 25.4524 28.7516 25.3251 28.5008C25.0222 27.9036 24.1399 27.7106 23.7132 28.148C23.3578 28.5124 23.4614 29.0613 23.9034 29.1557C24.0046 29.1774 24.0017 29.1728 23.8776 29.115C23.6842 29.0249 23.6001 28.9 23.599 28.7012C23.5966 28.235 24.1144 27.9734 24.5961 28.1972C24.9488 28.3612 25.0889 28.5754 25.0889 28.951C25.0889 29.5293 24.6111 29.965 24.055 29.8938C23.7578 29.8556 23.3943 29.6598 23.1994 29.4329C22.709 28.8617 22.9 27.9602 23.5848 27.6144C24.106 27.3511 24.799 27.416 25.3363 27.7784C25.9536 28.1949 26.2162 28.5756 26.7479 29.8248C26.9211 30.2316 27.1438 30.6895 27.2429 30.8424C27.7466 31.6191 28.3501 32 29.0771 32C29.478 32 29.7796 31.9246 30.1591 31.7294C30.441 31.5843 30.8407 31.3087 30.8119 31.2791C30.8037 31.2708 30.6868 31.3082 30.552 31.3624C29.7583 31.6812 28.9514 31.6594 28.4829 31.306C28.1878 31.0836 27.9497 30.6405 27.8274 30.0864C27.8062 29.9904 27.7364 29.5668 27.6721 29.1449C27.5092 28.0757 27.3528 27.595 26.988 27.0434C26.6148 26.4791 25.8972 26.0055 25.0951 25.794C24.5946 25.662 23.6943 25.6261 23.1539 25.7167ZM21.3976 17.4494C21.5059 17.0374 21.8558 16.6444 22.2157 16.5306C22.4445 16.4582 22.9175 16.5044 23.1399 16.6208C23.571 16.8466 23.8839 17.3608 23.816 17.732C23.7331 18.1845 23.0207 18.5466 22.2011 18.5526C21.7825 18.5555 21.6279 18.4976 21.468 18.2778C21.3691 18.1416 21.3316 17.7007 21.3976 17.4494ZM23.0299 16.7822C23.2448 16.9174 23.3001 17.1173 23.1737 17.3023C23.0867 17.4297 22.8172 17.5508 22.6202 17.5508C22.3243 17.5508 22.0015 17.3344 22.0015 17.1361C22.0015 16.7378 22.6205 16.5246 23.0299 16.7822ZM87.2717 17.9227C86.6031 15.6546 87.7057 13.7733 90.0584 13.1688C90.7331 12.9953 93.7884 13.0736 94.3118 13.2778C94.5041 13.3527 94.5878 13.6399 94.5896 14.2302C94.5908 14.6952 94.6405 15.2598 94.6998 15.485C94.7899 15.8263 94.7373 15.8935 94.3841 15.888C94.0646 15.8829 93.8715 15.692 93.6018 15.1144C93.171 14.1918 92.6494 13.8984 91.434 13.895C89.8823 13.8904 88.747 14.9558 88.9318 16.2432C89.0522 17.0809 89.8729 17.9052 91.7147 19.0383C93.4671 20.1162 94.49 21.0027 94.8974 21.7969C95.9872 23.9202 95.0566 26.1924 92.6286 27.3373C91.3823 27.9249 89.2935 27.9857 87.825 27.477L86.8846 27.1512V25.6188C86.8846 24.2309 86.917 24.0861 87.2272 24.0861C87.4867 24.0861 87.5987 24.261 87.6898 24.8089C87.9164 26.1714 88.9317 26.9985 90.3776 26.9985C91.7941 26.9985 92.7842 26.2092 93.1636 24.7781C93.3251 24.1684 93.2972 23.9436 92.9768 23.2711C92.5928 22.4648 91.9315 21.9297 89.6856 20.6083C88.4394 19.875 87.5582 18.8946 87.2717 17.9227ZM43.2459 14.0742C42.9394 14.0742 42.8198 13.9721 42.8198 13.7102C42.8198 13.3634 42.9394 13.3461 45.3407 13.3461C47.5696 13.3461 47.8549 13.3803 47.8037 13.6412C47.7717 13.8036 47.4638 14.0287 47.1189 14.1418L46.4919 14.3473L46.4384 18.9892C46.4025 22.0865 46.453 23.8733 46.5897 24.359C46.9963 25.8037 48.2367 26.6345 49.9867 26.6345C51.2051 26.6345 51.9168 26.344 52.8109 25.4813C53.7727 24.5539 53.926 23.6726 53.923 19.0926C53.9201 14.5749 53.8429 14.202 52.8916 14.1083C52.4586 14.0655 52.3136 13.9626 52.3136 13.6987C52.3136 13.3696 52.4564 13.3461 54.463 13.3461C56.4931 13.3461 56.6125 13.3663 56.6125 13.7102C56.6125 13.9344 56.4921 14.0753 56.299 14.077C55.4694 14.0844 55.4542 14.1649 55.3425 19.1187C55.2267 24.2631 55.1185 24.8722 54.0962 26.1324C53.8014 26.4959 53.0983 27.0238 52.5338 27.3055C51.6141 27.7645 51.3215 27.8172 49.7162 27.8143C48.2364 27.8112 47.7692 27.7383 47.0293 27.3948C45.9492 26.8934 45.2468 26.2444 44.729 25.2692C44.3675 24.5885 44.3366 24.2201 44.2529 19.608C44.157 14.3287 44.1106 14.0742 43.2459 14.0742ZM60.0075 14.0742C59.5979 14.0742 59.4785 13.992 59.4785 13.7102C59.4785 13.3689 59.593 13.347 61.3145 13.361L63.1506 13.376L64.0291 14.4077C64.5119 14.9751 66.0863 16.7501 67.5272 18.3519C68.9683 19.9539 70.6228 21.8174 71.2037 22.4932C71.7848 23.1691 72.3316 23.722 72.419 23.722C72.5088 23.722 72.5535 21.8128 72.5215 19.3372L72.465 14.9524L71.9624 14.5133C71.686 14.2717 71.263 14.0742 71.0221 14.0742C70.7016 14.0742 70.5843 13.9752 70.5843 13.7051C70.5843 13.3496 70.6757 13.3377 73.0472 13.3865C75.0636 13.428 75.5102 13.4854 75.5102 13.7027C75.5102 13.8576 75.2608 14.0202 74.9114 14.0928C74.5822 14.1613 74.2194 14.312 74.1053 14.4278C73.9582 14.5772 73.8833 16.5095 73.8468 21.0914L73.7954 27.5446H73.2763C72.8294 27.5446 72.2974 27.0317 69.4531 23.8584C67.6359 21.8309 65.5146 19.4214 64.7394 18.5038C63.9639 17.5861 63.2692 16.8284 63.1953 16.8201C62.9874 16.7963 63.0377 24.9948 63.2503 25.7731C63.4161 26.3795 63.5302 26.4839 64.2347 26.6755C64.802 26.8296 65.0314 26.986 65.0314 27.2183C65.0314 27.5166 64.8151 27.5446 62.5237 27.5446C60.191 27.5446 60.0159 27.5208 60.0159 27.2033C60.0159 26.9709 60.1847 26.8278 60.5452 26.7545C61.6389 26.5322 61.7115 26.1794 61.7729 20.7864C61.8073 17.7659 61.7568 15.6525 61.6395 15.21C61.4333 14.4318 60.9196 14.0742 60.0075 14.0742ZM78.7898 14.0742C78.4061 14.0742 78.2867 13.9878 78.2867 13.7102C78.2867 13.3623 78.4061 13.3461 80.9735 13.3461C83.5409 13.3461 83.6604 13.3623 83.6604 13.7102C83.6604 13.9772 83.5409 14.0742 83.2125 14.0742C82.9663 14.0742 82.6003 14.2414 82.3993 14.4456C82.0445 14.8062 82.0353 14.9855 82.0859 20.5586C82.1351 25.999 82.1561 26.3138 82.4855 26.5584C82.6768 26.7003 83.0192 26.8165 83.2467 26.8165C83.5409 26.8165 83.6604 26.9215 83.6604 27.1806C83.6604 27.5284 83.5409 27.5446 80.9735 27.5446C78.4672 27.5446 78.2867 27.5217 78.2867 27.2039C78.2867 26.9476 78.4625 26.8344 78.9963 26.7477C80.0563 26.5754 80.1104 26.2228 80.0443 19.9299C79.9916 14.8903 79.9688 14.5761 79.6406 14.3324C79.4493 14.1904 79.0665 14.0742 78.7898 14.0742ZM97.5322 14.0742C97.2871 14.0742 97.1008 13.9357 97.0427 13.7102C96.9524 13.3581 97.0375 13.3461 99.6193 13.3461C102.17 13.3461 102.289 13.3623 102.289 13.7102C102.289 13.99 102.17 14.0742 101.774 14.0742C100.646 14.0742 100.672 14.2825 102.378 19.043C103.247 21.4663 104.09 23.7682 104.252 24.1583L104.547 24.8677L105.915 21.1547C107.526 16.7842 107.735 15.9759 107.461 15.1788C107.271 14.6232 106.53 14.0742 105.97 14.0742C105.812 14.0742 105.693 13.9177 105.693 13.7102C105.693 13.3618 105.812 13.3461 108.469 13.3461C111.126 13.3461 111.246 13.3618 111.246 13.7102C111.246 13.9692 111.126 14.0742 110.832 14.0742C110.079 14.0742 109.747 14.4824 109.855 15.2753C109.966 16.0915 113.047 24.8641 113.176 24.7329C113.387 24.5194 116.799 15.0756 116.799 14.7075C116.799 14.2665 116.495 14.0742 115.799 14.0742C115.485 14.0742 115.365 13.9739 115.365 13.7102C115.365 13.3663 115.485 13.3461 117.515 13.3461C119.338 13.3461 119.665 13.3891 119.665 13.6286C119.665 13.7841 119.441 13.9903 119.168 14.087C118.554 14.3045 118.4 14.5528 117.63 16.564C117.291 17.4473 116.233 20.2115 115.277 22.7064C114.321 25.2015 113.498 27.3518 113.448 27.4848C113.398 27.6179 113.102 27.7267 112.79 27.7267H112.223L110.936 24.3135C110.228 22.4365 109.392 20.2126 109.078 19.3716C108.54 17.9306 108.495 17.868 108.292 18.2793C108.174 18.5196 107.324 20.7475 106.403 23.2303L104.728 27.7445L104.103 27.6901L103.478 27.6357L101.095 21.2788C99.7631 17.7271 98.5386 14.7347 98.3197 14.498C98.1041 14.2648 97.7498 14.0742 97.5322 14.0742ZM133.349 14.1514C133.319 14.0823 133.319 13.8338 133.319 13.8338C133.319 13.8338 133.312 13.7442 133.349 13.6963C133.386 13.6487 133.399 13.6474 133.53 13.6346L133.532 13.6345C134.015 13.5876 134.986 13.5086 135.795 13.4726C135.869 13.4693 135.952 13.4655 136.042 13.4614L136.043 13.4613L136.044 13.4612L136.045 13.4612C136.936 13.4199 138.531 13.3648 139.627 13.4207C141.73 13.5278 143.226 14.5646 143.736 16.2778C144.246 17.9909 143.976 19.5991 143.281 20.6227C142.586 21.6464 141.418 22.5278 139.476 22.4704C137.873 22.4231 137.444 22.1169 137.101 21.8723C137.029 21.8206 136.96 21.7716 136.885 21.7285V23.9133C136.902 25.4033 136.914 26.1189 137.027 26.3839C137.18 26.7405 137.524 26.9602 138.196 27.1286C138.196 27.1286 138.499 27.2012 138.578 27.2786C138.656 27.3561 138.656 27.528 138.656 27.528C138.656 27.528 138.672 27.6888 138.609 27.7708C138.546 27.8527 138.425 27.8363 138.425 27.8363L135.451 27.8119L133.659 27.8071C133.659 27.8071 133.471 27.8438 133.4 27.7667C133.33 27.6894 133.336 27.5285 133.336 27.5285C133.336 27.5285 133.352 27.3551 133.434 27.2775C133.516 27.1998 133.822 27.1131 133.822 27.1131C134.514 26.9151 134.814 26.7057 134.97 26.3112C135.096 25.9932 135.097 25.4034 135.096 20.5907C135.095 16.0266 135.088 15.1752 134.986 14.9303C134.834 14.5679 134.453 14.4719 133.912 14.3351L133.912 14.3351C133.805 14.308 133.691 14.2792 133.571 14.2466C133.571 14.2466 133.379 14.2206 133.349 14.1514ZM142.005 17.8756C142.005 18.6241 141.993 19.7958 141.211 20.5448C140.43 21.2937 138.892 21.4988 137.848 21.2902C137.519 21.2245 137.33 21.1232 137.185 21.0451L137.171 21.0373L136.904 20.8937L136.888 18.2642C136.878 16.6166 136.895 15.5432 136.933 15.3897C136.968 14.521 138.225 14.4129 138.839 14.4451C141.465 14.4451 141.929 16.7021 142.005 17.8756ZM125.1 13.4481C125.1 13.4481 124.972 13.4983 124.778 13.5735L124.076 13.9429L123.571 15.2288C123.294 15.936 122.785 17.2342 122.442 18.1137C121.817 19.7157 121.404 20.7681 120.97 21.8667C120.842 22.1898 120.456 23.1737 120.112 24.0533C119.769 24.9327 119.425 25.7697 119.349 25.9132C119.336 25.9371 119.323 25.9628 119.309 25.9899C119.116 26.3584 118.782 26.9985 118.193 27.0953C118.193 27.0953 117.868 27.1278 117.748 27.2487C117.628 27.3698 117.64 27.4687 117.64 27.4687V27.6211C117.64 27.6211 117.651 27.695 117.719 27.7318C117.787 27.7686 117.879 27.7708 117.879 27.7708L120.036 27.7458H122.266C122.266 27.7458 122.424 27.7645 122.484 27.7131C122.545 27.6617 122.562 27.5854 122.562 27.5854V27.4249C122.562 27.4249 122.531 27.2508 122.443 27.1829C122.354 27.115 122.023 27.0686 122.023 27.0686C121.131 26.9489 120.977 26.2604 121.087 25.6412C121.142 25.337 121.5 24.2118 121.904 23.0789L122.044 22.6874L124.38 22.6692C125.665 22.6592 126.775 22.6659 126.846 22.6843C126.947 22.7105 127.089 23.0045 127.506 24.0517C128.137 25.6384 128.188 25.8317 128.048 26.1285C128.039 26.1466 128.03 26.1666 128.021 26.188C127.889 26.4751 127.635 27.0329 126.993 27.0897C126.993 27.0897 126.652 27.1018 126.567 27.2056C126.483 27.3096 126.501 27.4291 126.501 27.4291V27.5879C126.501 27.5879 126.524 27.681 126.567 27.7179C126.611 27.7548 126.685 27.7455 126.685 27.7455L128.806 27.7299L131.787 27.7298C131.787 27.7298 131.904 27.7425 131.936 27.6967C131.967 27.6508 131.974 27.5968 131.974 27.5968V27.3859C131.974 27.3859 131.961 27.2737 131.904 27.2118C131.846 27.1501 131.46 27.0848 131.46 27.0848C130.966 27.0036 130.72 26.5879 130.537 26.2783C130.49 26.1993 130.447 26.1273 130.406 26.0695C130.321 25.9515 130.018 25.305 129.78 24.6831C129.543 24.0613 129.007 22.6566 128.59 21.5618C128.173 20.4669 127.591 18.9396 127.296 18.1678C127.002 17.396 126.443 15.9274 126.053 14.9043C125.989 14.7364 125.932 14.5855 125.881 14.4505L125.88 14.4499C125.619 13.7628 125.514 13.4856 125.485 13.4481C125.391 13.3262 125.1 13.4481 125.1 13.4481ZM124.962 17.629C124.868 17.3957 124.702 16.9772 124.594 16.699C124.397 16.1933 124.322 16.0768 124.261 16.1813C124.244 16.2118 124.12 16.5574 123.986 16.9493C123.122 19.4869 122.73 20.6295 122.652 20.8449C122.602 20.9802 122.562 21.1197 122.562 21.1549C122.562 21.1953 123.265 21.2189 124.47 21.2189C125.519 21.2189 126.378 21.2056 126.378 21.1893C126.378 21.1731 126.284 20.9309 126.17 20.6509C126.055 20.3708 125.775 19.6719 125.547 19.0975C125.32 18.5232 125.056 17.8624 124.962 17.629Z" fill="#F3F3F3"/>
</svg>
