<svg width="121" height="27" viewBox="0 0 121 27" fill="none" xmlns="http://www.w3.org/2000/svg">
<g clip-path="url(#clip0_186_824)">
<path fill-rule="evenodd" clip-rule="evenodd" d="M14.5468 0.072372C11.8265 -0.214171 9.08426 0.348848 6.69697 1.68404C4.30968 3.01923 2.39453 5.06106 1.21476 7.52886C0.0349851 9.99666 -0.351492 12.7693 0.108449 15.4656C0.56839 18.162 1.85217 20.6497 3.78333 22.5869C5.71449 24.524 8.19823 25.8155 10.8932 26.2838C13.5881 26.752 16.3619 26.3741 18.8333 25.202C21.3048 24.0299 23.3525 22.121 24.6951 19.7379C26.0376 17.3547 26.6091 14.6143 26.331 11.8931C26.025 8.86842 24.686 6.04155 22.5396 3.88851C20.3932 1.73547 17.5705 0.387786 14.5468 0.072372ZM14.1177 20.2459C12.6547 20.4422 11.1669 20.1751 9.86354 19.4821C8.56015 18.7892 7.50665 17.7053 6.85111 16.3827C6.19557 15.0601 5.97094 13.5653 6.20879 12.1085C6.44665 10.6516 7.13502 9.30592 8.17718 8.2605C9.21933 7.21508 10.5629 6.5225 12.019 6.28009C13.4751 6.03768 14.9705 6.25763 16.2952 6.90903C17.6198 7.56043 18.707 8.61053 19.404 9.91175C20.1011 11.213 20.3728 12.6999 20.1811 14.1635C19.98 15.703 19.2769 17.1333 18.1808 18.2328C17.0846 19.3324 15.6566 20.0399 14.1177 20.2459ZM33.4125 0.596156C32.9533 0.597255 32.5001 0.700714 32.0859 0.899005C31.6717 1.0973 31.3069 1.38543 31.0181 1.74244C30.7293 2.09945 30.5237 2.51636 30.4163 2.96283C30.3089 3.4093 30.3024 3.87409 30.3973 4.32339C30.6878 5.77899 32.0474 6.77355 33.5285 6.77355H42.1235L28.7477 24.4747C28.6487 24.6054 28.5882 24.761 28.5727 24.9242C28.5573 25.0874 28.5876 25.2516 28.6603 25.3985C28.733 25.5454 28.8452 25.6692 28.9843 25.7559C29.1233 25.8426 29.2838 25.8889 29.4477 25.8895H50.4291C51.9091 25.8895 53.2697 24.8952 53.5603 23.4394C53.6551 22.9901 53.6487 22.5254 53.5413 22.079C53.434 21.6326 53.2286 21.2157 52.9399 20.8587C52.6512 20.5016 52.2866 20.2134 51.8726 20.015C51.4585 19.8166 51.0054 19.7129 50.5463 19.7116H40.0739L53.4395 2.02425C53.5394 1.8923 53.6005 1.73513 53.6161 1.57036C53.6316 1.4056 53.601 1.23976 53.5275 1.09146C53.4541 0.943157 53.3407 0.818254 53.2003 0.730766C53.0598 0.643277 52.8977 0.596664 52.7322 0.596156H33.4125ZM117.253 0.66741C116.558 0.832585 115.94 1.22988 115.502 1.79359C115.064 2.35731 114.831 3.0537 114.843 3.76761V14.0528L98.1769 0.790418C98.0462 0.686674 97.8888 0.621932 97.723 0.60364C97.5571 0.585348 97.3895 0.614249 97.2393 0.687018C97.0891 0.759787 96.9626 0.873468 96.8742 1.01498C96.7858 1.1565 96.7391 1.3201 96.7395 1.48696V22.7236C96.7282 23.4375 96.9609 24.1339 97.3991 24.6976C97.8373 25.2614 98.4548 25.6586 99.1494 25.8238C99.6005 25.923 100.068 25.9197 100.518 25.8142C100.967 25.7086 101.388 25.5034 101.747 25.2138C102.107 24.9242 102.397 24.5575 102.596 24.1408C102.796 23.724 102.899 23.2679 102.898 22.8061V12.4319L119.564 25.6945C119.695 25.7982 119.852 25.8629 120.018 25.8812C120.183 25.8994 120.351 25.8705 120.501 25.7978C120.651 25.7251 120.778 25.6114 120.866 25.47C120.955 25.3285 121.001 25.165 121.001 24.9982V3.6841C121.001 3.22236 120.898 2.76638 120.699 2.34981C120.5 1.93324 120.21 1.56668 119.85 1.27717C119.49 0.987662 119.07 0.78258 118.621 0.677047C118.171 0.571514 117.704 0.568221 117.253 0.66741ZM73.8593 6.18226C80.9085 6.18226 86.1756 9.9075 86.1756 13.2397C86.1756 16.5719 80.9085 20.2972 73.8593 20.2972C66.8101 20.2972 61.543 16.5719 61.543 13.2397C61.543 9.9075 66.8101 6.18226 73.8593 6.18226ZM73.8593 0.00511769C63.6559 0.00511769 55.3846 5.9305 55.3846 13.2397C55.3846 20.5489 63.6559 26.4743 73.8593 26.4743C84.0627 26.4743 92.3337 20.5489 92.3337 13.2397C92.3337 5.9305 84.0625 0.00511769 73.8593 0.00511769Z" fill="#F6F6F6"/>
</g>
<defs>
<clipPath id="clip0_186_824">
<rect width="121" height="26.4862" fill="white"/>
</clipPath>
</defs>
</svg>
