<svg width="123" height="34" viewBox="0 0 123 34" fill="none" xmlns="http://www.w3.org/2000/svg">
<path d="M15.7445 26.3282L15.6568 26.413C14.2437 27.8527 12.6081 28.6158 10.9228 28.6158C7.40492 28.6158 4.85129 25.9767 4.85129 22.3354C4.85129 18.7006 7.40492 16.0578 10.9228 16.0578C12.6081 16.0578 14.2437 16.8239 15.6568 18.2675L15.7445 18.3548L18.0069 15.6192L17.9464 15.545C16.0649 13.3216 13.8074 12.2392 11.032 12.2392C8.24703 12.2392 5.70119 13.1765 3.86641 14.8668C1.87287 16.6972 0.820312 19.2787 0.820312 22.3354C0.820312 25.3905 1.87287 27.9783 3.86641 29.8093C5.70119 31.5074 8.24703 32.4395 11.032 32.4395C13.8074 32.4395 16.0649 31.3577 17.9464 29.1334L18.0069 29.0643L15.7445 26.3282Z" fill="white"/>
<path d="M20.293 32.0669H24.2898V12.556H20.293V32.0669Z" fill="white"/>
<path d="M39.9456 27.8246C38.8793 28.4738 37.887 28.8003 36.9958 28.8003C35.7045 28.8003 35.121 28.1187 35.121 26.6006V16.2481H39.1915V12.574H35.121V6.50307L31.2036 8.59954V12.574H27.8241V16.2481H31.2036V27.261C31.2036 30.2615 32.9809 32.3113 35.634 32.3646C37.4356 32.3998 38.5216 31.8632 39.1812 31.4709L39.2198 31.4422L40.182 27.6802L39.9456 27.8246Z" fill="white"/>
<path d="M43.2559 32.0669H47.2553V12.556H43.2559V32.0669Z" fill="white"/>
<path d="M111 5.13264V23.744L112.245 21.8061C112.244 21.8147 117.838 13.7133 118.555 12.6803H121.049C120.518 13.3934 116.119 19.4471 116.119 19.4471C116.119 19.4471 121.849 31.3871 122.18 32.0673H119.731C119.597 31.7887 114.674 21.3681 114.674 21.3681L111 26.5172V32.0673H108.718V6.43534C108.918 6.32078 110.463 5.43529 111 5.13264ZM92.2609 14.9916C93.4375 13.2326 95.2811 12.2627 97.438 12.2627C101.739 12.2627 104.018 15.0057 104.018 20.1964V32.0673H101.731V20.6879C101.731 16.2718 100.198 14.2218 96.8762 14.2218C93.6969 14.2218 91.7985 16.6401 91.7985 20.6879V32.0673H89.5181V12.6803H91.7985V15.6867L92.2609 14.9916ZM78.2405 12.2627C82.6663 12.2627 84.8178 14.2865 84.8178 18.4511V32.0673H82.5365V29.2388L82.0926 29.7283C80.4137 31.5806 78.4867 32.4863 76.1921 32.4863C74.3942 32.4863 70.2107 31.8912 70.2107 26.3721C70.2107 21.8609 73.9347 20.2597 77.4232 20.2597C79.1749 20.2597 80.9053 20.663 82.161 21.3667L82.5365 21.5748V18.7915C82.5365 15.7057 81.0294 14.1429 78.0513 14.1429C76.2148 14.1429 74.5573 14.6065 72.8578 15.5644C72.7078 15.2199 72.1807 14.0544 72.034 13.7219C73.8102 12.7857 76.0035 12.2627 78.2405 12.2627ZM72.4476 26.1821C72.4476 29.0803 73.9493 30.6774 76.6774 30.6774C78.9995 30.6774 81.0618 29.5804 82.4935 27.5854L82.5365 27.517V23.2665L82.4098 23.1931C80.9537 22.363 79.4624 22.0282 77.2705 22.0282C74.2531 22.0282 72.4476 23.5807 72.4476 26.1821ZM54.8331 5.13264V15.5036L55.2748 15.02C56.9548 13.1644 58.8144 12.2627 60.9525 12.2627C65.2311 12.2627 67.6869 15.8289 67.6869 22.0485C67.6869 28.3889 64.8977 32.4863 60.5792 32.4863C58.4751 32.4863 56.7902 31.67 55.2771 29.9201L54.8331 29.4033V32.0673H52.5566V6.43534C52.7505 6.32078 54.298 5.43529 54.8331 5.13264ZM54.8873 17.1928L54.8331 17.2644V27.3562L54.8739 27.4181C56.1322 29.3654 58.1821 30.5298 60.364 30.5298C63.7334 30.5298 65.4414 27.6898 65.4414 22.0899C65.4414 17.0873 63.5491 14.2218 60.2499 14.2218C58.2501 14.2218 56.4457 15.221 54.8873 17.1928Z" fill="white"/>
<path fill-rule="evenodd" clip-rule="evenodd" d="M49.6496 9.09419C45.991 3.9119 39.915 0.82002 33.7332 0.82002C27.5539 0.82002 21.4767 3.9119 17.8241 9.09419L17.6367 9.36084H22.2435L22.2945 9.30553C25.43 6.06935 29.523 4.35793 33.7332 4.35793C37.9438 4.35793 42.0361 6.06935 45.1776 9.30553L45.2285 9.36084H49.8339L49.6496 9.09419Z" fill="#818181"/>
</svg>
