<svg width="138" height="28" viewBox="0 0 138 28" fill="none" xmlns="http://www.w3.org/2000/svg">
<g clip-path="url(#clip0_186_734)">
<path d="M8.32511 11.6024L13.6872 6.2405L19.0521 11.6052L22.1722 8.48517L13.6872 0L5.20508 8.48234L8.32511 11.6024Z" fill="#F3F3F3"/>
<path d="M6.12193 13.805L3.00195 10.6851L-0.118181 13.8052L3.0018 16.9252L6.12193 13.805Z" fill="#F3F3F3"/>
<path d="M8.32579 16.009L13.6879 21.3708L19.0526 16.0063L22.1744 19.1246L22.1728 19.1264L13.6879 27.6113L5.20553 19.1292L5.20117 19.1249L8.32579 16.009Z" fill="#F3F3F3"/>
<path d="M24.3723 16.9263L27.4924 13.8062L24.3724 10.6862L21.2523 13.8063L24.3723 16.9263Z" fill="#F3F3F3"/>
<path d="M16.8518 13.8037H16.8531L13.687 10.6377L11.3473 12.9774H11.347L11.0784 13.2463L10.5238 13.8009L10.5194 13.8053L10.5238 13.8098L13.687 16.9731L16.8531 13.807L16.8546 13.8053L16.8518 13.8037Z" fill="#F3F3F3"/>
<path d="M32.3555 6.69043H39.1414C40.8256 6.69043 42.0992 7.12266 42.9623 7.98712C43.6303 8.65662 43.9642 9.4864 43.9642 10.4763V10.5181C43.9642 10.9364 43.9125 11.306 43.8085 11.6266C43.7047 11.9476 43.566 12.2366 43.3926 12.4946C43.2197 12.7528 43.0186 12.9793 42.79 13.1743C42.5613 13.3697 42.3155 13.5372 42.0523 13.6763C42.8989 13.9973 43.5653 14.4328 44.0512 14.9837C44.5368 15.5348 44.78 16.2983 44.78 17.2742V17.3158C44.78 17.9853 44.6513 18.5709 44.3938 19.0731C44.1362 19.5749 43.7672 19.9934 43.2868 20.3281C42.8064 20.6629 42.2287 20.9137 41.5535 21.0811C40.8784 21.2484 40.1301 21.3319 39.3091 21.3319H32.3555V6.69043ZM38.4629 12.6097C39.1743 12.6097 39.7391 12.488 40.1572 12.2438C40.5755 11.9997 40.7846 11.6057 40.7846 11.062V11.0201C40.7846 10.5323 40.6032 10.1594 40.2407 9.90118C39.8781 9.6432 39.3551 9.5141 38.6721 9.5141H35.4927V12.6097H38.4629ZM39.3206 18.5085C40.0318 18.5085 40.5892 18.3798 40.994 18.1216C41.3983 17.8636 41.6006 17.4626 41.6006 16.9187V16.877C41.6006 16.389 41.4122 16.0021 41.0358 15.716C40.6592 15.4305 40.0527 15.2875 39.216 15.2875H35.4927V18.5087H39.3206V18.5085Z" fill="#F3F3F3"/>
<path d="M48.8203 6.69043H52.0418V21.3324H48.8203V6.69043Z" fill="#F3F3F3"/>
<path d="M56.9219 6.69043H59.8917L66.7526 15.7057V6.69043H69.9319V21.3324H67.192L60.101 12.0244V21.3324H56.9219V6.69043Z" fill="#F3F3F3"/>
<path d="M79.6858 6.58643H82.6558L88.9312 21.3328H85.5634L84.2246 18.049H78.0332L76.6946 21.3328H73.4102L79.6858 6.58643ZM83.0743 15.204L81.1288 10.456L79.184 15.204H83.0743Z" fill="#F3F3F3"/>
<path d="M92.4082 6.69043H95.3786L102.239 15.7057V6.69043H105.418V21.3324H102.679L95.5875 12.0244V21.3324H92.4082V6.69043Z" fill="#F3F3F3"/>
<path d="M117.009 21.5827C115.935 21.5827 114.938 21.3873 114.018 20.9972C113.097 20.607 112.303 20.0734 111.633 19.3969C110.964 18.7206 110.441 17.9223 110.065 17.002C109.688 16.0815 109.5 15.0984 109.5 14.0525V14.0108C109.5 12.9649 109.688 11.9855 110.065 11.072C110.441 10.1587 110.964 9.35684 111.633 8.66663C112.303 7.97641 113.105 7.43231 114.039 7.03497C114.973 6.63763 116.005 6.43896 117.135 6.43896C117.817 6.43896 118.441 6.49501 119.006 6.60623C119.571 6.7181 120.083 6.87119 120.544 7.06637C121.004 7.26177 121.429 7.49882 121.82 7.77752C122.21 8.05666 122.573 8.36328 122.907 8.69803L120.858 11.0616C120.285 10.5458 119.704 10.141 119.111 9.84839C118.518 9.55573 117.853 9.40918 117.114 9.40918C116.5 9.40918 115.932 9.52781 115.409 9.76486C114.886 10.0019 114.436 10.3295 114.06 10.7477C113.683 11.166 113.391 11.6508 113.181 12.2014C112.972 12.7525 112.868 13.3416 112.868 13.969V14.0106C112.868 14.638 112.972 15.231 113.181 15.7884C113.391 16.3464 113.679 16.8343 114.049 17.2526C114.419 17.6708 114.865 18.0023 115.388 18.2463C115.911 18.4906 116.486 18.6123 117.114 18.6123C117.95 18.6123 118.658 18.459 119.236 18.1521C119.815 17.8457 120.391 17.4272 120.962 16.8971L123.012 18.9679C122.635 19.3725 122.244 19.7351 121.841 20.0555C121.436 20.3765 120.994 20.6517 120.512 20.882C120.031 21.1119 119.505 21.2865 118.933 21.4047C118.361 21.5232 117.72 21.5827 117.009 21.5827Z" fill="#F3F3F3"/>
<path d="M126.805 6.69043H137.828V9.55618H129.984V12.5264H136.887V15.3919H129.984V18.4668H137.933V21.3324H126.805V6.69043Z" fill="#F3F3F3"/>
</g>
<defs>
<clipPath id="clip0_186_734">
<rect width="137.828" height="27.611" fill="white"/>
</clipPath>
</defs>
</svg>
