<svg width="75" height="93" viewBox="0 0 75 93" fill="none" xmlns="http://www.w3.org/2000/svg">
<path d="M14.5872 80.34C14.8485 80.34 14.9792 80.4753 14.9792 80.746L15.3992 90H14.4752L14.0972 81.11H13.7892L11.2692 88.684C11.2132 88.8893 11.0779 88.992 10.8632 88.992H9.9392C9.72453 88.992 9.58453 88.8893 9.5192 88.684L7.0132 81.11H6.7052L6.3412 90H5.4172L5.8092 80.746C5.82786 80.4753 5.96786 80.34 6.2292 80.34H7.3352C7.54053 80.34 7.6712 80.4473 7.7272 80.662L9.8412 86.962C9.9252 87.1767 9.9952 87.396 10.0512 87.62C10.1165 87.8347 10.1865 88.054 10.2612 88.278H10.5552C10.6205 88.054 10.6859 87.8347 10.7512 87.62C10.8165 87.396 10.8865 87.1673 10.9612 86.934L13.0752 80.662C13.1312 80.4473 13.2665 80.34 13.4812 80.34H14.5872ZM20.3712 83.042C21.3418 83.042 22.0512 83.2193 22.4992 83.574C22.9565 83.9287 23.1898 84.456 23.1992 85.156C23.2085 85.7627 23.0918 86.2293 22.8492 86.556C22.6065 86.8827 22.2005 87.046 21.6312 87.046H17.6972V86.346H21.4352C21.7805 86.346 22.0138 86.234 22.1352 86.01C22.2565 85.786 22.3125 85.506 22.3032 85.17C22.2938 84.6847 22.1398 84.3393 21.8412 84.134C21.5425 83.9193 21.0665 83.812 20.4132 83.812C19.8718 83.812 19.4425 83.896 19.1252 84.064C18.8078 84.232 18.5838 84.5167 18.4532 84.918C18.3225 85.31 18.2572 85.8467 18.2572 86.528C18.2572 87.284 18.3365 87.872 18.4952 88.292C18.6538 88.7027 18.9058 88.992 19.2512 89.16C19.5965 89.3187 20.0492 89.398 20.6092 89.398C21.0012 89.398 21.4072 89.384 21.8272 89.356C22.2565 89.3187 22.6298 89.2767 22.9472 89.23L23.0452 89.832C22.8492 89.9067 22.5972 89.9673 22.2892 90.014C21.9905 90.0607 21.6778 90.098 21.3512 90.126C21.0338 90.154 20.7492 90.168 20.4972 90.168C19.7318 90.168 19.1158 90.0513 18.6492 89.818C18.1918 89.5753 17.8558 89.1927 17.6412 88.67C17.4265 88.138 17.3192 87.4427 17.3192 86.584C17.3192 85.6973 17.4218 84.9973 17.6272 84.484C17.8418 83.9707 18.1732 83.602 18.6212 83.378C19.0692 83.154 19.6525 83.042 20.3712 83.042ZM26.478 81.166V88.306C26.478 88.6513 26.5573 88.9033 26.716 89.062C26.884 89.2207 27.136 89.3 27.472 89.3H28.578L28.69 89.958C28.55 89.9953 28.3867 90.0233 28.2 90.042C28.0227 90.07 27.85 90.0887 27.682 90.098C27.514 90.1073 27.3787 90.112 27.276 90.112C26.7253 90.112 26.3053 89.9673 26.016 89.678C25.736 89.3887 25.596 88.9687 25.596 88.418V81.166H26.478ZM28.774 83.21V83.938H24.364V83.28L25.694 83.21H28.774ZM33.466 83.042C33.9326 83.042 34.3246 83.112 34.642 83.252C34.9686 83.3827 35.216 83.602 35.384 83.91C35.552 84.2087 35.636 84.6147 35.636 85.128V90H34.936L34.796 88.516L34.74 88.39V85.128C34.74 84.6987 34.6373 84.372 34.432 84.148C34.236 83.924 33.858 83.812 33.298 83.812C32.8873 83.812 32.4113 83.8307 31.87 83.868C31.3286 83.9053 30.8013 83.952 30.288 84.008L30.204 83.35C30.5213 83.294 30.8573 83.2473 31.212 83.21C31.5666 83.1633 31.9353 83.126 32.318 83.098C32.7006 83.0607 33.0833 83.042 33.466 83.042ZM35.174 85.856L35.16 86.528L31.842 86.556C31.4873 86.5653 31.226 86.6633 31.058 86.85C30.8993 87.0273 30.82 87.2793 30.82 87.606V88.194C30.82 88.5767 30.918 88.8613 31.114 89.048C31.31 89.2347 31.6086 89.328 32.01 89.328C32.3086 89.3373 32.6353 89.286 32.99 89.174C33.354 89.062 33.7133 88.8987 34.068 88.684C34.4226 88.4693 34.7353 88.2173 35.006 87.928V88.614C34.894 88.754 34.7306 88.908 34.516 89.076C34.3106 89.244 34.068 89.4073 33.788 89.566C33.5173 89.7247 33.214 89.8553 32.878 89.958C32.5513 90.0607 32.2106 90.112 31.856 90.112C31.464 90.112 31.1233 90.042 30.834 89.902C30.5446 89.762 30.316 89.5567 30.148 89.286C29.9893 89.006 29.91 88.67 29.91 88.278V87.494C29.91 86.9713 30.064 86.57 30.372 86.29C30.6893 86.0007 31.1326 85.856 31.702 85.856H35.174ZM46.1209 83.042C46.6995 83.042 47.1429 83.2007 47.4509 83.518C47.7589 83.8353 47.9129 84.2973 47.9129 84.904V90H47.0309V85.142C47.0215 84.6847 46.9236 84.3487 46.7369 84.134C46.5502 83.9193 46.2469 83.812 45.8269 83.812C45.5562 83.812 45.2949 83.8587 45.0429 83.952C44.8002 84.036 44.5389 84.1713 44.2589 84.358C43.9789 84.5353 43.6476 84.764 43.2649 85.044L43.2089 84.4C43.7129 83.952 44.2029 83.616 44.6789 83.392C45.1642 83.1587 45.6449 83.042 46.1209 83.042ZM38.6589 83.21L38.7289 84.498L38.8129 84.708V90H37.9309V83.21H38.6589ZM41.5709 83.042C42.1402 83.042 42.5789 83.2007 42.8869 83.518C43.1949 83.826 43.3489 84.288 43.3489 84.904V90H42.4949V85.142C42.4949 84.666 42.3922 84.3253 42.1869 84.12C41.9909 83.9147 41.6922 83.812 41.2909 83.812C41.0295 83.812 40.7729 83.854 40.5209 83.938C40.2782 84.022 40.0122 84.1573 39.7229 84.344C39.4429 84.5213 39.1069 84.7547 38.7149 85.044L38.6589 84.4C39.1629 83.952 39.6529 83.616 40.1289 83.392C40.6049 83.1587 41.0855 83.042 41.5709 83.042ZM53.3722 83.042C53.8389 83.042 54.2309 83.112 54.5482 83.252C54.8749 83.3827 55.1222 83.602 55.2902 83.91C55.4582 84.2087 55.5422 84.6147 55.5422 85.128V90H54.8422L54.7022 88.516L54.6462 88.39V85.128C54.6462 84.6987 54.5436 84.372 54.3382 84.148C54.1422 83.924 53.7642 83.812 53.2042 83.812C52.7936 83.812 52.3176 83.8307 51.7762 83.868C51.2349 83.9053 50.7076 83.952 50.1942 84.008L50.1102 83.35C50.4276 83.294 50.7636 83.2473 51.1182 83.21C51.4729 83.1633 51.8416 83.126 52.2242 83.098C52.6069 83.0607 52.9896 83.042 53.3722 83.042ZM55.0802 85.856L55.0662 86.528L51.7482 86.556C51.3936 86.5653 51.1322 86.6633 50.9642 86.85C50.8056 87.0273 50.7262 87.2793 50.7262 87.606V88.194C50.7262 88.5767 50.8242 88.8613 51.0202 89.048C51.2162 89.2347 51.5149 89.328 51.9162 89.328C52.2149 89.3373 52.5416 89.286 52.8962 89.174C53.2602 89.062 53.6196 88.8987 53.9742 88.684C54.3289 88.4693 54.6416 88.2173 54.9122 87.928V88.614C54.8002 88.754 54.6369 88.908 54.4222 89.076C54.2169 89.244 53.9742 89.4073 53.6942 89.566C53.4236 89.7247 53.1202 89.8553 52.7842 89.958C52.4576 90.0607 52.1169 90.112 51.7622 90.112C51.3702 90.112 51.0296 90.042 50.7402 89.902C50.4509 89.762 50.2222 89.5567 50.0542 89.286C49.8956 89.006 49.8162 88.67 49.8162 88.278V87.494C49.8162 86.9713 49.9702 86.57 50.2782 86.29C50.5956 86.0007 51.0389 85.856 51.6082 85.856H55.0802ZM60.0211 83.042C60.3105 83.042 60.6138 83.0513 60.9311 83.07C61.2578 83.0887 61.5798 83.112 61.8971 83.14C62.2145 83.168 62.5131 83.2007 62.7931 83.238L62.7091 83.896C62.2891 83.868 61.8598 83.8493 61.4211 83.84C60.9825 83.8213 60.5531 83.812 60.1331 83.812C59.6851 83.8027 59.3258 83.8167 59.0551 83.854C58.7938 83.882 58.5978 83.9753 58.4671 84.134C58.3458 84.2833 58.2851 84.5353 58.2851 84.89C58.2851 85.2913 58.3738 85.5667 58.5511 85.716C58.7285 85.856 58.9898 85.9587 59.3351 86.024L61.4211 86.416C61.9438 86.5187 62.3311 86.7053 62.5831 86.976C62.8445 87.2467 62.9751 87.662 62.9751 88.222C62.9751 88.7913 62.8725 89.2113 62.6671 89.482C62.4618 89.7527 62.1491 89.93 61.7291 90.014C61.3091 90.1073 60.7865 90.154 60.1611 90.154C59.8905 90.154 59.5265 90.1447 59.0691 90.126C58.6211 90.1073 58.1218 90.056 57.5711 89.972L57.6411 89.328C57.8931 89.3373 58.1451 89.3513 58.3971 89.37C58.6491 89.3793 58.9058 89.3887 59.1671 89.398C59.4378 89.398 59.7178 89.398 60.0071 89.398C60.5391 89.3887 60.9591 89.3607 61.2671 89.314C61.5751 89.258 61.7945 89.146 61.9251 88.978C62.0558 88.81 62.1211 88.558 62.1211 88.222C62.1211 87.83 62.0138 87.564 61.7991 87.424C61.5938 87.284 61.3278 87.1813 61.0011 87.116L58.9291 86.738C58.5838 86.6633 58.2991 86.556 58.0751 86.416C57.8511 86.2667 57.6831 86.0707 57.5711 85.828C57.4685 85.576 57.4171 85.2633 57.4171 84.89C57.4171 84.3487 57.5105 83.9473 57.6971 83.686C57.8838 83.4153 58.1685 83.238 58.5511 83.154C58.9338 83.07 59.4238 83.0327 60.0211 83.042ZM70.1415 83.21L67.8595 85.758C67.8035 85.8233 67.7335 85.898 67.6495 85.982C67.5655 86.0567 67.4955 86.1127 67.4395 86.15V86.178C67.4955 86.2247 67.5655 86.2947 67.6495 86.388C67.7335 86.4813 67.8035 86.57 67.8595 86.654L70.3655 90H69.3155L66.4735 86.108L69.0775 83.21H70.1415ZM65.7875 80.2L65.8015 84.652C65.8015 84.932 65.7922 85.184 65.7735 85.408C65.7548 85.632 65.7268 85.8747 65.6895 86.136C65.7268 86.3973 65.7502 86.6493 65.7595 86.892C65.7782 87.1347 65.7875 87.3773 65.7875 87.62V90H64.9055V80.2H65.7875ZM67.0335 85.814V86.486H65.4375V85.814H67.0335Z" fill="white"/>
<path d="M64.5245 8.35645L41.1017 25.7529L45.4331 15.4892L64.5245 8.35645Z" fill="#797979" stroke="#797979" stroke-width="0.235405" stroke-linecap="round" stroke-linejoin="round"/>
<path d="M10.4531 8.35645L33.6876 25.9177L29.568 15.4892L10.4531 8.35645Z" fill="#5A5A5A" stroke="#5A5A5A" stroke-width="0.235405" stroke-linecap="round" stroke-linejoin="round"/>
<path d="M56.0976 48.6816L49.8594 58.2391L63.2068 61.9114L67.0439 48.8935L56.0976 48.6816Z" fill="#5A5A5A" stroke="#5A5A5A" stroke-width="0.235405" stroke-linecap="round" stroke-linejoin="round"/>
<path d="M7.98047 48.8935L11.794 61.9114L25.1415 58.2391L18.9033 48.6816L7.98047 48.8935Z" fill="#5A5A5A" stroke="#5A5A5A" stroke-width="0.235405" stroke-linecap="round" stroke-linejoin="round"/>
<path d="M24.3874 32.5327L20.668 38.1589L33.9213 38.7474L33.4505 24.5054L24.3874 32.5327Z" fill="#5A5A5A" stroke="#5A5A5A" stroke-width="0.235405" stroke-linecap="round" stroke-linejoin="round"/>
<path d="M50.5883 32.5329L41.4075 24.3408L41.1014 38.7476L54.3312 38.1591L50.5883 32.5329Z" fill="#5A5A5A" stroke="#5A5A5A" stroke-width="0.235405" stroke-linecap="round" stroke-linejoin="round"/>
<path d="M25.1406 58.2387L33.0973 54.3545L26.2235 48.9873L25.1406 58.2387Z" fill="#5A5A5A" stroke="#5A5A5A" stroke-width="0.235405" stroke-linecap="round" stroke-linejoin="round"/>
<path d="M41.8788 54.3545L49.859 58.2387L48.7526 48.9873L41.8788 54.3545Z" fill="#5A5A5A" stroke="#5A5A5A" stroke-width="0.235405" stroke-linecap="round" stroke-linejoin="round"/>
<path d="M49.8573 58.2392L41.8771 54.355L42.5127 59.5574L42.442 61.7467L49.8573 58.2392Z" fill="#D7C1B3" stroke="#D7C1B3" stroke-width="0.235405" stroke-linecap="round" stroke-linejoin="round"/>
<path d="M25.1406 58.2392L32.5559 61.7467L32.5088 59.5574L33.0973 54.355L25.1406 58.2392Z" fill="#D7C1B3" stroke="#D7C1B3" stroke-width="0.235405" stroke-linecap="round" stroke-linejoin="round"/>
<path d="M32.6736 45.5506L26.0352 43.5968L30.7197 41.4546L32.6736 45.5506Z" fill="#233447" stroke="#233447" stroke-width="0.235405" stroke-linecap="round" stroke-linejoin="round"/>
<path d="M42.3027 45.5506L44.2566 41.4546L48.9647 43.5968L42.3027 45.5506Z" fill="#233447" stroke="#233447" stroke-width="0.235405" stroke-linecap="round" stroke-linejoin="round"/>
<path d="M25.1407 58.2391L26.2706 48.6816L18.9025 48.8935L25.1407 58.2391Z" fill="#838383" stroke="#838383" stroke-width="0.235405" stroke-linecap="round" stroke-linejoin="round"/>
<path d="M48.7288 48.6816L49.8587 58.2391L56.0969 48.8935L48.7288 48.6816Z" fill="#838383" stroke="#838383" stroke-width="0.235405" stroke-linecap="round" stroke-linejoin="round"/>
<path d="M54.3314 38.1592L41.1017 38.7477L42.3258 45.5509L44.2797 41.4548L48.9877 43.597L54.3314 38.1592Z" fill="#838383" stroke="#838383" stroke-width="0.235405" stroke-linecap="round" stroke-linejoin="round"/>
<path d="M26.0352 43.597L30.7433 41.4548L32.6736 45.5509L33.9213 38.7477L20.668 38.1592L26.0352 43.597Z" fill="#838383" stroke="#838383" stroke-width="0.235405" stroke-linecap="round" stroke-linejoin="round"/>
<path d="M20.668 38.1592L26.2235 48.9878L26.0352 43.597L20.668 38.1592Z" fill="#515151" stroke="#515151" stroke-width="0.235405" stroke-linecap="round" stroke-linejoin="round"/>
<path d="M48.9872 43.597L48.7518 48.9878L54.3309 38.1592L48.9872 43.597Z" fill="#515151" stroke="#515151" stroke-width="0.235405" stroke-linecap="round" stroke-linejoin="round"/>
<path d="M33.9195 38.7476L32.6719 45.5508L34.2255 53.5781L34.5787 43.0084L33.9195 38.7476Z" fill="#515151" stroke="#515151" stroke-width="0.235405" stroke-linecap="round" stroke-linejoin="round"/>
<path d="M41.1004 38.7476L40.4648 42.9848L40.7473 53.5781L42.3245 45.5508L41.1004 38.7476Z" fill="#515151" stroke="#515151" stroke-width="0.235405" stroke-linecap="round" stroke-linejoin="round"/>
<path d="M42.3253 45.551L40.748 53.5783L41.878 54.3552L48.7518 48.9879L48.9872 43.5972L42.3253 45.551Z" fill="#A9A9A9" stroke="#A9A9A9" stroke-width="0.235405" stroke-linecap="round" stroke-linejoin="round"/>
<path d="M26.0352 43.5972L26.2235 48.9879L33.0973 54.3552L34.2272 53.5783L32.6736 45.551L26.0352 43.5972Z" fill="#A9A9A9" stroke="#A9A9A9" stroke-width="0.235405" stroke-linecap="round" stroke-linejoin="round"/>
<path d="M42.4429 61.7468L42.5135 59.5575L41.925 59.0396H33.0502L32.5088 59.5575L32.5559 61.7468L25.1406 58.2393L27.7301 60.3579L32.9796 64.0067H41.9956L47.2687 60.3579L49.8581 58.2393L42.4429 61.7468Z" fill="#C0AD9E" stroke="#C0AD9E" stroke-width="0.235405" stroke-linecap="round" stroke-linejoin="round"/>
<path d="M41.8769 54.355L40.747 53.5781H34.2263L33.0963 54.355L32.5078 59.5574L33.0492 59.0395H41.924L42.5125 59.5574L41.8769 54.355Z" fill="#161616" stroke="#161616" stroke-width="0.235405" stroke-linecap="round" stroke-linejoin="round"/>
<path d="M65.5114 26.8828L67.5123 17.2783L64.5227 8.35645L41.8767 25.1644L50.5867 32.5325L62.8984 36.1342L65.6291 32.9563L64.452 32.1088L66.3353 30.3903L64.8758 29.2604L66.759 27.8244L65.5114 26.8828Z" fill="#3E3E3E" stroke="#3E3E3E" stroke-width="0.235405" stroke-linecap="round" stroke-linejoin="round"/>
<path d="M7.48608 17.2783L9.48703 26.8828L8.21584 27.8244L10.0991 29.2604L8.66311 30.3903L10.5463 32.1088L9.36932 32.9563L12.0765 36.1342L24.3882 32.5325L33.0981 25.1644L10.4522 8.35645L7.48608 17.2783Z" fill="#3E3E3E" stroke="#3E3E3E" stroke-width="0.235405" stroke-linecap="round" stroke-linejoin="round"/>
<path d="M62.8998 36.1349L50.5881 32.5332L54.331 38.1594L48.752 48.988L56.0966 48.8938H67.0429L62.8998 36.1349Z" fill="#A9A9A9" stroke="#A9A9A9" stroke-width="0.235405" stroke-linecap="round" stroke-linejoin="round"/>
<path d="M24.3882 32.5332L12.0765 36.1349L7.98047 48.8938H18.9033L26.2243 48.988L20.6688 38.1594L24.3882 32.5332Z" fill="#A9A9A9" stroke="#A9A9A9" stroke-width="0.235405" stroke-linecap="round" stroke-linejoin="round"/>
<path d="M41.1012 38.7473L41.8781 25.1644L45.4562 15.4893H29.5664L33.0975 25.1644L33.9214 38.7473L34.2039 43.0316L34.2274 53.5778H40.7481L40.7952 43.0316L41.1012 38.7473Z" fill="#A9A9A9" stroke="#A9A9A9" stroke-width="0.235405" stroke-linecap="round" stroke-linejoin="round"/>
</svg>
