<svg width="110" height="45" viewBox="0 0 110 45" fill="none" xmlns="http://www.w3.org/2000/svg">
<g clip-path="url(#clip0_186_778)">
<path d="M14.2495 9.64648C6.49609 9.64648 0.0351562 12.9359 0.0351562 22.8598C0.0351562 30.7218 4.37966 35.6728 14.4497 35.6728C26.3027 35.6728 27.0625 27.8649 27.0625 27.8649H21.3192C21.3192 27.8649 20.0878 32.0691 14.0994 32.0691C9.22199 32.0691 5.714 28.7743 5.714 24.1562H27.6631V21.2582C27.6631 16.6894 24.7627 9.64648 14.2495 9.64648ZM14.0493 13.3502C18.6921 13.3502 21.8572 16.1945 21.8572 20.4574H5.84102C5.84102 15.9318 9.97233 13.3502 14.0493 13.3502Z" fill="#F2F2F2"/>
<path d="M27.6593 0.0371094V30.6894C27.6593 32.4293 27.5352 34.8723 27.5352 34.8723H33.0131C33.0131 34.8723 33.2097 33.1177 33.2097 31.5141C33.2097 31.5141 35.9161 35.7482 43.2751 35.7482C51.0244 35.7482 56.2883 30.3681 56.2883 22.66C56.2883 15.4892 51.4533 9.7219 43.2876 9.7219C35.6411 9.7219 33.265 13.8511 33.265 13.8511V0.0371094H27.6593ZM41.8737 13.5132C47.1361 13.5132 50.4824 17.4188 50.4824 22.66C50.4824 28.2801 46.6175 31.9569 41.9112 31.9569C36.2947 31.9569 33.265 27.5715 33.265 22.71C33.265 18.1801 35.9836 13.5132 41.8737 13.5132Z" fill="#F2F2F2"/>
<path d="M69.9038 9.64648C58.2393 9.64648 57.4912 16.0334 57.4912 17.054H63.2971C63.2971 17.054 63.6015 13.3252 69.5034 13.3252C73.3384 13.3252 76.3102 15.0806 76.3102 18.4554V19.6566H69.5034C60.4667 19.6566 55.6894 22.3002 55.6894 27.6647C55.6894 32.9442 60.1035 35.8167 66.0686 35.8167C74.1982 35.8167 76.817 31.3246 76.817 31.3246C76.817 33.1113 76.9547 34.872 76.9547 34.872H82.1161C82.1161 34.872 81.9159 32.6896 81.9159 31.2934V19.2249C81.9159 11.3118 75.5331 9.64648 69.9038 9.64648ZM76.3102 23.2602V24.8619C76.3102 26.9508 75.0212 32.1442 67.4325 32.1442C63.277 32.1442 61.4953 30.0703 61.4953 27.6647C61.4953 23.2884 67.4953 23.2602 76.3102 23.2602Z" fill="#F2F2F2"/>
<path d="M78.7892 10.6484H85.3208L94.6946 29.4281L104.047 10.6484H109.964L92.9285 44.0822H86.7223L91.6379 34.7621L78.7892 10.6484Z" fill="#F2F2F2"/>
</g>
<defs>
<clipPath id="clip0_186_778">
<rect width="110" height="44.1188" fill="white"/>
</clipPath>
</defs>
</svg>
