<svg width="158" height="25" viewBox="0 0 158 25" fill="none" xmlns="http://www.w3.org/2000/svg">
<path d="M19.7993 23.007H17.2891V10.874H19.7993V23.007Z" fill="#F6F6F6"/>
<path d="M29.2477 14.5349C29.8404 15.023 30.1194 15.8249 30.1194 16.9406V23.007H27.7137V17.5681C27.7137 17.08 27.644 16.7314 27.5394 16.4873C27.2953 16.0341 26.8769 15.79 26.2145 15.79C25.4126 15.79 24.8896 16.1387 24.5758 16.8011C24.4364 17.1498 24.3318 17.603 24.3318 18.1608V23.0419H21.9958V14.0468H24.2621V15.3717C24.5758 14.9184 24.8548 14.5698 25.0988 14.3606C25.5869 14.0119 26.1796 13.8027 26.9467 13.8027C27.888 13.8027 28.655 14.0468 29.2477 14.5349Z" fill="#F6F6F6"/>
<path d="M31.2695 15.7892V14.1157H32.5247V11.6055H34.8606V14.1157H36.3249V15.7892H34.8606V20.5308C34.8606 20.9144 34.8955 21.1236 35.0001 21.2282C35.1047 21.3328 35.3836 21.3676 35.8717 21.3676C35.9414 21.3676 36.0111 21.3676 36.1157 21.3676C36.1854 21.3676 36.2901 21.3676 36.3598 21.3676V23.1108L35.1744 23.1458C34.0587 23.1807 33.2917 23.0063 32.9082 22.5531C32.6293 22.2741 32.5247 21.8558 32.5247 21.2979V15.7893L31.2695 15.7892Z" fill="#F6F6F6"/>
<path d="M43.5429 14.2208C44.1704 14.4997 44.6934 14.953 45.1118 15.5457C45.4953 16.0687 45.7045 16.6962 45.8439 17.3935C45.9137 17.8119 45.9486 18.4046 45.9137 19.1716H39.3591C39.394 20.0781 39.7077 20.7057 40.3004 21.0543C40.6491 21.2635 41.1023 21.403 41.5904 21.403C42.1134 21.403 42.5666 21.2635 42.8804 20.9846C43.0548 20.8451 43.2291 20.6359 43.3685 20.357H45.7742C45.7045 20.88 45.4255 21.4378 44.9026 21.9957C44.1007 22.8673 42.985 23.3205 41.5207 23.3205C40.3353 23.3205 39.2545 22.937 38.348 22.2049C37.4415 21.4727 36.9883 20.2524 36.9883 18.6138C36.9883 17.0449 37.4067 15.8595 38.2434 15.0227C39.0802 14.186 40.1261 13.7676 41.451 13.7676C42.218 13.8025 42.9153 13.9419 43.5428 14.2208H43.5429ZM40.0215 16.243C39.6729 16.5916 39.4637 17.0449 39.394 17.6376H43.4383C43.4034 17.01 43.1942 16.5568 42.8107 16.2081C42.4272 15.8943 41.974 15.72 41.4161 15.72C40.8234 15.72 40.3702 15.8943 40.0215 16.243Z" fill="#F6F6F6"/>
<path d="M52.2588 13.8373C52.2937 13.8373 52.3634 13.8373 52.468 13.8373V16.243C52.3285 16.243 52.1891 16.208 52.0845 16.208C51.9799 16.208 51.8753 16.208 51.8056 16.208C50.8642 16.208 50.2366 16.5218 49.888 17.1145C49.7137 17.4632 49.6091 17.9861 49.6091 18.7183V23.0066H47.2383V14.0464H49.4696V15.6153C49.8183 15.0226 50.1321 14.6042 50.411 14.395C50.8642 14.0115 51.4221 13.8372 52.1193 13.8372C52.189 13.8023 52.224 13.8023 52.2588 13.8372V13.8373Z" fill="#F6F6F6"/>
<path d="M57.3813 17.5684C57.8345 17.4987 58.1483 17.429 58.3227 17.3592C58.6713 17.2198 58.8456 17.0106 58.8456 16.6968C58.8456 16.3133 58.7062 16.0692 58.4621 15.9298C58.2181 15.7903 57.8345 15.7206 57.3116 15.7206C56.7537 15.7206 56.3354 15.86 56.1262 16.139C55.9518 16.3481 55.8473 16.6271 55.7775 16.9757H53.5113C53.5462 16.1738 53.7902 15.5463 54.1738 15.0233C54.8013 14.2214 55.8821 13.8379 57.3813 13.8379C58.3575 13.8379 59.264 14.0471 60.031 14.4306C60.7981 14.8141 61.1816 15.5463 61.1816 16.6271V20.7411C61.1816 21.02 61.1816 21.3687 61.1816 21.7871C61.1816 22.1008 61.2513 22.31 61.321 22.4146C61.3907 22.5193 61.5302 22.6238 61.6697 22.6936V23.0422H59.1245C59.0548 22.8679 59.0199 22.6936 58.9851 22.5192C58.9502 22.3449 58.9502 22.1706 58.9154 21.9614C58.6016 22.31 58.2181 22.6238 57.7997 22.8679C57.2767 23.1468 56.7189 23.3211 56.0565 23.3211C55.2546 23.3211 54.5573 23.0771 54.0343 22.6238C53.5113 22.1706 53.2324 21.5081 53.2324 20.6365C53.2324 19.5208 53.6508 18.719 54.5224 18.2309C55.0105 17.9519 55.673 17.7776 56.6143 17.6381L57.3813 17.5684ZM58.8108 18.6492C58.6713 18.7539 58.497 18.8235 58.3575 18.8933C58.2181 18.963 58.0089 18.9979 57.73 19.0676L57.207 19.1722C56.7189 19.2769 56.3354 19.3814 56.1262 19.486C55.7427 19.6952 55.5683 20.0438 55.5683 20.4971C55.5683 20.9155 55.673 21.1944 55.917 21.3687C56.1262 21.543 56.4051 21.6476 56.7537 21.6476C57.2767 21.6476 57.73 21.5082 58.1832 21.1944C58.6016 20.8806 58.8456 20.3576 58.8456 19.5557V18.6493L58.8108 18.6492Z" fill="#F6F6F6"/>
<path d="M68.5389 17.2544C68.504 16.9057 68.3995 16.6268 68.1903 16.3479C67.9114 15.9992 67.5278 15.79 66.97 15.79C66.1681 15.79 65.6451 16.1735 65.3314 16.9754C65.1919 17.3938 65.0873 17.9517 65.0873 18.649C65.0873 19.3114 65.157 19.8343 65.3314 20.2527C65.6103 20.9849 66.1332 21.3684 66.9351 21.3684C67.493 21.3684 67.8765 21.2289 68.1205 20.9152C68.3646 20.6014 68.5041 20.2179 68.5389 19.7646H70.9446C70.8749 20.4968 70.6308 21.1592 70.1776 21.7868C69.4454 22.7978 68.3646 23.3208 66.9003 23.3208C65.436 23.3208 64.39 22.9024 63.6927 22.0308C62.9954 21.1592 62.6816 20.0435 62.6816 18.6838C62.6816 17.1498 63.0651 15.9295 63.7973 15.0927C64.5643 14.2211 65.5754 13.8027 66.9351 13.8027C68.0508 13.8027 68.9922 14.0468 69.6895 14.5698C70.3868 15.0927 70.84 15.9644 70.9794 17.2544H68.5389Z" fill="#F6F6F6"/>
<path d="M71.7109 15.7892V14.1157H72.9661V11.6055H75.302V14.1157H76.7663V15.7892H75.302V20.5308C75.302 20.9144 75.3368 21.1236 75.4415 21.2282C75.5461 21.3328 75.825 21.3676 76.3131 21.3676C76.3828 21.3676 76.4525 21.3676 76.5571 21.3676C76.6269 21.3676 76.7315 21.3676 76.8012 21.3676V23.1108L75.6507 23.1458C74.535 23.1807 73.768 23.0063 73.3844 22.5531C73.1055 22.2741 73.0009 21.8558 73.0009 21.2979V15.7893L71.7109 15.7892Z" fill="#F6F6F6"/>
<path d="M80.7084 12.9658H78.3376V10.8042H80.7084V12.9658ZM78.3027 14.0466H80.6735V23.0417H78.3027V14.0466Z" fill="#F6F6F6"/>
<path d="M88.3448 14.0469H90.8551L87.6126 23.042H85.1373L81.9297 14.0469H84.5794L86.4621 20.6712L88.3448 14.0469Z" fill="#F6F6F6"/>
<path d="M97.7226 14.2208C98.3501 14.4997 98.8731 14.953 99.2915 15.5457C99.675 16.0687 99.8842 16.6962 100.024 17.3935C100.093 17.8119 100.128 18.4046 100.093 19.1716H93.5388C93.5737 20.0781 93.8874 20.7057 94.4801 21.0543C94.8288 21.2635 95.282 21.403 95.7701 21.403C96.2931 21.403 96.7463 21.2635 97.0601 20.9846C97.2344 20.8451 97.4088 20.6359 97.5482 20.357H99.9539C99.8842 20.88 99.6052 21.4378 99.0823 21.9957C98.2804 22.8673 97.1647 23.3205 95.7004 23.3205C94.515 23.3205 93.4342 22.937 92.5277 22.2049C91.6212 21.4727 91.168 20.2524 91.168 18.6138C91.168 17.0449 91.5863 15.8595 92.4231 15.0227C93.2599 14.186 94.3058 13.7676 95.6306 13.7676C96.3977 13.8025 97.095 13.9419 97.7225 14.2208H97.7226ZM94.2012 16.243C93.8526 16.5916 93.6434 17.0449 93.5736 17.6376H97.618C97.583 17.01 97.3739 16.5568 96.9904 16.2081C96.6069 15.8943 96.1536 15.72 95.5958 15.72C95.0031 15.72 94.5499 15.8943 94.2012 16.243Z" fill="#F6F6F6"/>
<path d="M101.628 10.9092H106.858C108.288 10.9092 109.299 11.3276 109.891 12.1643C110.24 12.6524 110.414 13.2451 110.414 13.9076C110.414 14.6746 110.205 15.3022 109.752 15.7903C109.543 16.0343 109.194 16.2784 108.776 16.4875C109.403 16.7316 109.857 16.9757 110.17 17.2894C110.728 17.8124 110.972 18.5446 110.972 19.4859C110.972 20.2529 110.728 20.9851 110.24 21.6127C109.508 22.554 108.322 23.0421 106.719 23.0421H101.559V10.9092H101.628ZM106.265 16.0343C106.963 16.0343 107.521 15.9297 107.904 15.7554C108.532 15.4416 108.811 14.9186 108.811 14.1167C108.811 13.3149 108.497 12.7919 107.834 12.513C107.451 12.3735 106.928 12.2689 106.196 12.2689H103.232V16.0343H106.265ZM106.823 21.6127C107.834 21.6127 108.567 21.3338 108.985 20.7411C109.264 20.3575 109.403 19.9392 109.403 19.4162C109.403 18.5446 109.02 17.9519 108.218 17.6032C107.8 17.4289 107.242 17.3592 106.544 17.3592H103.267V21.6127H106.823Z" fill="#F6F6F6"/>
<path d="M112.783 14.186H114.178V15.7201C114.283 15.4063 114.561 15.0577 115.015 14.6393C115.468 14.2209 115.991 14.0117 116.584 14.0117C116.619 14.0117 116.653 14.0117 116.723 14.0117C116.793 14.0117 116.897 14.0117 117.072 14.0466V15.6156C116.967 15.6156 116.897 15.5806 116.828 15.5806C116.758 15.5806 116.688 15.5806 116.584 15.5806C115.851 15.5806 115.259 15.8247 114.875 16.3128C114.457 16.8009 114.283 17.3587 114.283 17.9863V23.0766H112.783V14.186Z" fill="#F6F6F6"/>
<path d="M124.672 15.0573C125.439 15.8243 125.857 16.94 125.857 18.4043C125.857 19.8338 125.509 21.0192 124.811 21.9256C124.114 22.867 123.068 23.3202 121.604 23.3202C120.384 23.3202 119.442 22.9019 118.745 22.1C118.048 21.2632 117.664 20.1824 117.664 18.7878C117.664 17.2886 118.048 16.1381 118.78 15.2316C119.512 14.36 120.523 13.9067 121.778 13.9067C122.929 13.9417 123.87 14.3251 124.672 15.0573ZM123.731 20.9494C124.079 20.2173 124.288 19.3805 124.288 18.474C124.288 17.6373 124.149 16.9748 123.905 16.4519C123.486 15.65 122.789 15.2316 121.778 15.2316C120.872 15.2316 120.244 15.5803 119.826 16.2775C119.407 16.9748 119.198 17.8116 119.198 18.7878C119.198 19.7292 119.407 20.4962 119.826 21.1238C120.244 21.7513 120.872 22.0651 121.778 22.0651C122.719 22.0651 123.382 21.6816 123.731 20.9494Z" fill="#F6F6F6"/>
<path d="M127.496 10.9092H128.926V17.9519L132.726 14.1865H134.609L131.227 17.4638L134.818 23.0073H132.935L130.146 18.5097L128.926 19.6951V23.0073H127.496V10.9092Z" fill="#F6F6F6"/>
<path d="M140.989 14.4306C141.582 14.7095 142.035 15.093 142.314 15.5812C142.593 16.0344 142.802 16.5574 142.907 17.1501C143.011 17.5685 143.046 18.196 143.046 19.1025H136.631C136.666 20.009 136.875 20.7063 137.258 21.2641C137.642 21.822 138.269 22.066 139.071 22.066C139.838 22.066 140.466 21.8219 140.919 21.299C141.163 20.9852 141.372 20.6714 141.477 20.253H142.941C142.906 20.5668 142.767 20.9503 142.558 21.3338C142.349 21.7173 142.105 22.066 141.826 22.3101C141.372 22.7633 140.815 23.0422 140.152 23.2165C139.804 23.3212 139.385 23.356 138.932 23.356C137.851 23.356 136.91 22.9725 136.143 22.1706C135.376 21.3687 134.992 20.253 134.992 18.8236C134.992 17.3941 135.376 16.2436 136.143 15.372C136.91 14.5003 137.921 14.0471 139.141 14.0471C139.804 13.9774 140.396 14.1517 140.989 14.4306ZM141.547 17.9171C141.477 17.2895 141.338 16.7666 141.128 16.383C140.71 15.6509 140.048 15.3022 139.106 15.3022C138.444 15.3022 137.851 15.5463 137.398 16.0344C136.945 16.5225 136.701 17.1501 136.666 17.9171H141.547Z" fill="#F6F6F6"/>
<path d="M144.824 14.186H146.219V15.7201C146.323 15.4063 146.602 15.0577 147.056 14.6393C147.509 14.2209 148.032 14.0117 148.624 14.0117C148.659 14.0117 148.694 14.0117 148.764 14.0117C148.834 14.0117 148.938 14.0117 149.113 14.0466V15.6156C149.008 15.6156 148.938 15.5806 148.869 15.5806C148.799 15.5806 148.729 15.5806 148.624 15.5806C147.892 15.5806 147.3 15.8247 146.916 16.3128C146.498 16.8009 146.323 17.3587 146.323 17.9863V23.0766H144.824V14.186Z" fill="#F6F6F6"/>
<path d="M151.309 20.2522C151.344 20.7403 151.483 21.1238 151.692 21.4028C152.076 21.8909 152.738 22.1349 153.68 22.1349C154.238 22.1349 154.726 22.0303 155.179 21.7863C155.597 21.5422 155.806 21.1936 155.806 20.6706C155.806 20.2871 155.632 20.0082 155.284 19.799C155.074 19.6944 154.621 19.5549 153.994 19.3806L152.808 19.0668C152.041 18.8925 151.483 18.6833 151.1 18.4393C150.437 18.0209 150.124 17.4979 150.124 16.7657C150.124 15.929 150.437 15.2666 151.03 14.7436C151.623 14.2206 152.459 13.9766 153.505 13.9766C154.865 13.9766 155.841 14.3601 156.434 15.162C156.818 15.6501 156.992 16.2079 156.992 16.7657H155.597C155.562 16.4171 155.458 16.1382 155.249 15.8592C154.9 15.4757 154.307 15.2666 153.436 15.2666C152.878 15.2666 152.425 15.3712 152.146 15.5803C151.867 15.7895 151.692 16.0684 151.692 16.4171C151.692 16.8006 151.902 17.1144 152.285 17.3236C152.494 17.463 152.843 17.5676 153.261 17.6722L154.272 17.9163C155.353 18.1603 156.085 18.4393 156.469 18.6833C157.062 19.0668 157.341 19.6595 157.341 20.4614C157.341 21.2633 157.027 21.9257 156.434 22.4836C155.841 23.0414 154.9 23.3552 153.68 23.3552C152.355 23.3552 151.414 23.0414 150.856 22.4487C150.298 21.856 150.019 21.1238 149.949 20.2174H151.309V20.2522Z" fill="#F6F6F6"/>
<path d="M0.658081 23.0067V12.1289L10.5597 23.0067H0.658081Z" fill="url(#paint0_linear_186_800)"/>
<path d="M9.16663 17.7425C10.8033 17.7425 12.1301 16.4156 12.1301 14.7789C12.1301 13.1422 10.8033 11.8154 9.16663 11.8154C7.52993 11.8154 6.20312 13.1422 6.20312 14.7789C6.20312 16.4156 7.52993 17.7425 9.16663 17.7425Z" fill="#979797"/>
<path d="M0.658203 12.1292V23.007L10.5598 0.658691L0.658203 12.1292Z" fill="#979797"/>
<defs>
<linearGradient id="paint0_linear_186_800" x1="10.5467" y1="17.5681" x2="0.642705" y2="17.5681" gradientUnits="userSpaceOnUse">
<stop stop-color="#575757"/>
<stop offset="1" stop-color="#575757"/>
</linearGradient>
</defs>
</svg>
