<svg width="139" height="32" viewBox="0 0 139 32" fill="none" xmlns="http://www.w3.org/2000/svg">
<rect width="139" height="32" rx="4" fill="#3D3D3D"/>
<path d="M13.7252 22.7445L10.0625 9.24211H12.4651L15.2793 19.6127L18.2954 9.24121L20.535 9.24211L23.5616 19.6678L26.3885 9.24466L28.791 9.24121L25.1267 22.7421L22.3419 22.7393L19.4161 12.6559L16.4876 22.7419L13.7252 22.7445Z" fill="white"/>
<path d="M30.4492 9.24902H32.7363V22.7357H30.4492V9.24902Z" fill="white"/>
<path d="M37.6245 20.6201H43.1924V22.7357H35.3848V9.24902H37.6245V20.6201Z" fill="white"/>
<path d="M50.2282 9.26457C52.1052 9.26457 53.6667 9.91792 54.897 11.209C56.1431 12.5001 56.774 14.1024 56.774 16.0001C56.774 17.8824 56.1431 19.4846 54.897 20.7912C53.6667 22.0824 52.1052 22.7357 50.2282 22.7357H44.8496V9.24902H50.2282V9.26457ZM50.2282 20.6357C51.5216 20.6357 52.5784 20.2001 53.367 19.329C54.1872 18.4579 54.5973 17.3379 54.5973 16.0157C54.5973 14.6624 54.1872 13.5735 53.367 12.7024C52.5626 11.8312 51.5058 11.3957 50.2282 11.3957H47.1052V20.6357H50.2282Z" fill="white"/>
<path d="M68.8395 18.8829C68.8395 19.9879 68.4455 20.9062 67.641 21.6377C66.8365 22.3692 65.89 22.7427 64.723 22.7427H58.8711V9.24902H64.297C65.417 9.24902 66.363 9.62257 67.136 10.3229C67.925 11.0388 68.3035 11.926 68.3035 12.9843C68.3035 14.1671 67.83 15.0698 66.9155 15.7391C68.114 16.3616 68.8395 17.4822 68.8395 18.8829ZM61.1265 11.3346V14.8831H64.3125C65.3065 14.8831 66.0635 14.1049 66.0635 13.1088C66.0635 12.1127 65.3065 11.3346 64.3125 11.3346H61.1265ZM64.7385 20.6572C65.7795 20.6572 66.6 19.8323 66.6 18.774C66.6 17.7156 65.7795 16.8908 64.7385 16.8908H61.1265V20.6727H64.7385V20.6572Z" fill="white"/>
<path d="M73.2082 20.626H79.2653V22.7427H70.9688V9.24902H79.1707V11.3657H73.2082V14.8675H78.6817V16.9686H73.2082V20.626Z" fill="white"/>
<path d="M89.0772 22.7427L86.1747 17.8246H83.5247V22.7427H81.2852V9.24902H86.7582C87.9887 9.24902 89.0297 9.66922 89.8657 10.5252C90.7172 11.3501 91.1592 12.3773 91.1592 13.5913C91.1592 15.3033 90.0707 16.8752 88.4462 17.4977L91.5532 22.7427H89.0772ZM83.5247 11.3345V15.848H86.7427C87.9412 15.848 88.8877 14.8519 88.8877 13.5913C88.8877 12.3462 87.9257 11.3345 86.7427 11.3345H83.5247Z" fill="white"/>
<path d="M101.047 22.7423L98.161 17.8217H95.511V22.7423H93.2715V9.2417H98.7445C99.975 9.2417 101.016 9.66215 101.852 10.5186C102.703 11.3439 103.145 12.3716 103.145 13.5862C103.145 15.2991 102.057 16.8718 100.432 17.4947L103.539 22.7423H101.047ZM95.511 11.3283V15.8441H98.729C99.9275 15.8441 100.874 14.8475 100.874 13.5862C100.874 12.3405 99.912 11.3283 98.729 11.3283H95.511Z" fill="white"/>
<path d="M105.18 9.24316H107.42V22.7423H105.18V9.24316Z" fill="white"/>
<path d="M112.31 20.626H118.367V22.7426H110.07V9.24902H118.272V11.3657H112.31V14.8675H117.783V16.9686H112.31V20.626Z" fill="white"/>
<path d="M119.93 19.6711L121.87 18.5511C122.422 20.0756 123.542 20.8222 125.261 20.8222C126.964 20.8222 127.8 20.1067 127.8 19.0489C127.8 18.4889 127.564 18.0844 127.122 17.8044C126.68 17.5089 125.86 17.1822 124.693 16.84C123.384 16.4511 122.737 16.2022 121.822 15.6111C120.939 14.9889 120.497 14.1022 120.497 12.8889C120.497 11.6911 120.923 10.7578 121.791 10.0578C122.643 9.3422 123.684 9 124.898 9C127.091 9 128.778 10.12 129.662 11.9711L127.769 13.0444C127.201 11.8 126.239 11.1622 124.898 11.1622C123.589 11.1622 122.753 11.8156 122.753 12.8422C122.753 13.8378 123.415 14.3044 125.513 14.9422C126.034 15.1133 126.412 15.2378 126.649 15.3311C126.901 15.4089 127.232 15.5489 127.658 15.72C128.1 15.8911 128.447 16.0933 128.652 16.2645C129.378 16.8245 130.15 17.7422 130.056 19.0333C130.056 20.2466 129.614 21.2266 128.715 21.9422C127.832 22.6578 126.665 23 125.214 23C122.564 22.9845 120.639 21.74 119.93 19.6711Z" fill="white"/>
</svg>
