<svg width="119" height="29" viewBox="0 0 119 29" fill="none" xmlns="http://www.w3.org/2000/svg">
<g clip-path="url(#clip0_186_756)">
<path d="M22.6116 12.2715C22.6116 17.9956 17.9712 22.6357 12.2471 22.6357C6.52324 22.6357 1.88281 17.9956 1.88281 12.2715C1.88281 6.54765 6.52324 1.9072 12.2471 1.9072C17.9712 1.9072 22.6116 6.54765 22.6116 12.2715Z" fill="white"/>
<path d="M18.7864 15.5629H16.3244C15.3058 15.5613 14.3287 14.6509 14.2722 13.6519C14.2722 13.5807 14.2938 13.5199 14.337 13.4691C14.4139 13.3962 14.4879 13.3625 14.5605 13.3625H14.9823L16.928 6.30788H7.17729L9.12171 13.3625L9.53298 13.3638H9.53826C9.62044 13.3638 9.69206 13.3977 9.75821 13.4593C9.8077 13.5148 9.83183 13.5767 9.83183 13.6468C9.77681 14.6509 8.79968 15.5613 7.77989 15.5629H5.31788C4.29628 15.5613 3.31943 14.6468 3.2684 13.6438C3.27116 13.5941 3.27519 13.4983 3.35739 13.4448C3.39233 13.4002 3.47604 13.3625 3.56075 13.3625H3.97176L6.12505 5.46879C6.22082 5.21794 6.44303 5.05326 6.68288 5.05204L11.1596 5.04947C11.2242 4.61837 11.5379 4.20716 12.053 4.20716C12.5689 4.20716 12.8816 4.61837 12.9446 5.04947L17.4214 5.05204C17.661 5.05326 17.8834 5.21795 17.9767 5.45901L20.1328 13.3625H20.5438C20.6313 13.3625 20.7147 13.4002 20.7685 13.4634C20.8293 13.4983 20.8331 13.5941 20.8344 13.629C20.7848 14.6468 19.808 15.5613 18.7864 15.5629ZM15.8906 19.3159C15.8906 19.4949 15.7289 19.6407 15.5308 19.6407H8.57625C8.37689 19.6407 8.21498 19.4949 8.21498 19.3159V18.5359C8.21498 18.5258 8.21376 18.4089 8.30675 18.3121C8.38088 18.2347 8.48873 18.196 8.62999 18.196C10.0287 18.0675 11.0867 17.0075 11.0867 16.3835L11.3657 7.5208C11.3695 7.34306 11.5136 7.19749 11.6863 7.19749H12.418C12.5892 7.19749 12.7335 7.34306 12.7401 7.5208L13.0178 16.3808C13.0178 17.0075 14.0756 18.0675 15.4835 18.1973H15.4901C15.6196 18.1973 15.7248 18.2367 15.799 18.3121C15.892 18.4089 15.8906 18.5258 15.8906 18.5384V19.3159ZM12.0525 -0.00239182C5.3953 -0.00239182 0 5.39388 0 12.0493C0 18.706 5.3953 24.1001 12.0525 24.1001C18.7075 24.1001 24.1045 18.706 24.1045 12.0493C24.1045 5.39388 18.7075 -0.00239182 12.0525 -0.00239182ZM16.1429 13.3625H18.9817L17.5657 7.50593L16.1429 13.3625ZM5.12407 13.3625H7.96285L6.53853 7.50593L5.12407 13.3625Z" fill="#545454"/>
<path d="M35.615 12.2507C37.2788 12.2507 38.2909 11.3807 38.2909 10.0594V10.0097C38.2909 8.56448 37.2788 7.79431 35.5946 7.79431H33.9043V12.2507H35.615ZM29.2325 3.86977H35.9526C40.2174 3.86977 42.9612 6.05956 42.9612 9.79149V9.84026C42.9612 13.8145 39.905 15.9087 35.713 15.9087H33.9043V20.7251H29.2325V3.86977Z" fill="#E1E1E1"/>
<path d="M44.2307 16.2241V7.69841H48.806V14.753C48.806 16.1764 49.5521 16.9431 50.6604 16.9431C51.7459 16.9431 52.5641 16.1764 52.5641 14.753V7.69841H57.1384V20.725H52.5641V18.944C51.718 20.0287 50.5156 21.0166 48.6618 21.0166C45.8928 21.0166 44.2307 19.1853 44.2307 16.2241Z" fill="#E1E1E1"/>
<path d="M59.0664 16.6818V4.40035H63.6427V7.69861H66.3317V11.3808H63.6427V15.7902C63.6427 16.7045 64.0522 17.0916 64.8947 17.0916C65.4964 17.0916 66.0743 16.9231 66.2853 16.6592V20.2439C65.8085 20.7021 64.7241 20.9917 63.4469 20.9917C60.7041 20.9917 59.0664 19.7863 59.0664 16.6818Z" fill="#E1E1E1"/>
<path d="M68.1191 7.69848H72.6952V9.52751C73.5363 8.44613 74.741 7.4089 76.5963 7.4089C79.366 7.4089 81.027 9.23818 81.027 12.2009V20.7251H76.4515V13.669C76.4515 12.2507 75.7024 11.4792 74.6213 11.4792C73.5112 11.4792 72.6952 12.2507 72.6952 13.669V20.7251H68.1191V7.69848Z" fill="#E1E1E1"/>
<path d="M90.5176 16.0067V15.4059C90.0562 15.2123 89.4069 15.0666 88.7331 15.0666C87.4087 15.0666 86.6403 15.7189 86.6403 16.6816V16.7299C86.6403 17.6205 87.3141 18.1484 88.2543 18.1484C89.5787 18.1484 90.5176 17.3063 90.5176 16.0067ZM82.2341 16.9941V16.9431C82.2341 14.2481 84.278 12.8499 87.3379 12.8499C88.54 12.8499 89.7215 13.0922 90.4661 13.358V13.1422C90.4661 11.7901 89.6257 11.0196 87.8663 11.0196C86.4923 11.0196 85.4331 11.2863 84.278 11.7431L83.3391 8.51594C84.8102 7.91515 86.3739 7.50561 88.6121 7.50561C90.95 7.50561 92.5421 8.05943 93.5775 9.09511C94.5621 10.0594 94.9727 11.4038 94.9727 13.2378V20.725H90.4461V19.3777C89.5542 20.3643 88.3244 21.0166 86.6146 21.0166C84.1351 21.0166 82.2341 19.5951 82.2341 16.9941Z" fill="#E1E1E1"/>
<path d="M96.8652 7.69848H101.441V9.47802C102.288 8.39484 103.488 7.4089 105.319 7.4089C107.054 7.4089 108.382 8.17791 109.079 9.52751C110.211 8.22662 111.535 7.4089 113.438 7.4089C116.204 7.4089 117.89 9.14094 117.89 12.1768V20.7251H113.314V13.6448C113.314 12.225 112.617 11.4792 111.535 11.4792C110.455 11.4792 109.656 12.225 109.656 13.6448V20.7251H105.079V13.6448C105.079 12.225 104.381 11.4792 103.297 11.4792C102.214 11.4792 101.441 12.225 101.441 13.6448V20.7251H96.8652V7.69848Z" fill="#E1E1E1"/>
<path d="M29.1504 23.3432H30.6772V28.8257H29.1504V23.3432Z" fill="#E1E1E1"/>
<path d="M35.2461 23.3432H36.6637L38.9195 26.2415V23.3432H40.4232V28.8257H39.0922L36.7496 25.818V28.8257H35.2461V23.3432Z" fill="#E1E1E1"/>
<path d="M43.6641 23.3433H45.3636L46.6084 26.813L47.8538 23.3433H49.5224L47.298 28.8647H45.8885L43.6641 23.3433Z" fill="#E1E1E1"/>
<path d="M52.9941 23.3432H57.404V24.6352H54.4981V25.466H57.1298V26.6633H54.4981V27.5336H57.4428V28.8257H52.9941V23.3432Z" fill="#E1E1E1"/>
<path d="M61.373 28.0119L62.2187 26.9999C62.7586 27.431 63.3619 27.658 63.9964 27.658C64.4036 27.658 64.6224 27.518 64.6224 27.2822V27.2666C64.6224 27.0396 64.4429 26.9147 63.6986 26.7422C62.5317 26.4758 61.631 26.1465 61.631 25.0193V25.004C61.631 23.9849 62.4379 23.2489 63.7536 23.2489C64.6861 23.2489 65.4139 23.5002 66.0092 23.9771L65.2498 25.05C64.7485 24.698 64.2001 24.5103 63.7146 24.5103C63.3458 24.5103 63.1661 24.6659 63.1661 24.8627V24.8778C63.1661 25.1292 63.3541 25.2385 64.1141 25.4107C65.3747 25.6852 66.1579 26.0919 66.1579 27.1176V27.1339C66.1579 28.2538 65.273 28.9199 63.9416 28.9199C62.9705 28.9199 62.0465 28.6137 61.373 28.0119Z" fill="#E1E1E1"/>
<path d="M71.2549 24.6747H69.6094V23.3432H74.4191V24.6747H72.7736V28.8257H71.2549V24.6747Z" fill="#E1E1E1"/>
<path d="M78.1816 23.3432H79.7879L81.0955 25.466L82.4038 23.3432H84.0094V28.8257H82.4971V25.6777L81.0955 27.8227H81.0646L79.6701 25.693V28.8257H78.1816V23.3432Z" fill="#E1E1E1"/>
<path d="M88.3926 23.3432H92.8033V24.6352H89.8965V25.466H92.5285V26.6633H89.8965V27.5336H92.8413V28.8257H88.3926V23.3432Z" fill="#E1E1E1"/>
<path d="M96.951 23.3432H98.368L100.625 26.2415V23.3432H102.128V28.8257H100.797L98.4549 25.818V28.8257H96.951V23.3432Z" fill="#E1E1E1"/>
<path d="M107.224 24.6747H105.578V23.3432H110.388V24.6747H108.742V28.8257H107.224V24.6747Z" fill="#E1E1E1"/>
<path d="M113.346 28.0119L114.191 26.9999C114.731 27.431 115.335 27.658 115.969 27.658C116.377 27.658 116.596 27.518 116.596 27.2822V27.2666C116.596 27.0396 116.416 26.9147 115.671 26.7422C114.504 26.4758 113.604 26.1465 113.604 25.0193V25.004C113.604 23.9849 114.411 23.2489 115.726 23.2489C116.658 23.2489 117.386 23.5002 117.982 23.9771L117.222 25.05C116.721 24.698 116.172 24.5103 115.687 24.5103C115.319 24.5103 115.139 24.6659 115.139 24.8627V24.8778C115.139 25.1292 115.326 25.2385 116.087 25.4107C117.347 25.6852 118.13 26.0919 118.13 27.1176V27.1339C118.13 28.2538 117.246 28.9199 115.915 28.9199C114.943 28.9199 114.019 28.6137 113.346 28.0119Z" fill="#E1E1E1"/>
</g>
<defs>
<clipPath id="clip0_186_756">
<rect width="118.132" height="28.92" fill="white"/>
</clipPath>
</defs>
</svg>
