<svg width="147" height="27" viewBox="0 0 147 27" fill="none" xmlns="http://www.w3.org/2000/svg">
<g clip-path="url(#clip0_186_826)">
<path d="M29.5025 7.28997C24.1922 7.28997 20.043 11.3211 20.043 16.7176C20.043 22.114 24.0874 26.1107 29.5025 26.1107C34.9175 26.1107 39.0322 22.0451 39.0322 16.6831C39.0322 11.3556 34.9878 7.28997 29.5025 7.28997ZM29.5383 22.2215C26.5143 22.2215 24.2984 19.8729 24.2984 16.7189C24.2984 13.529 26.4785 11.1818 29.5025 11.1818C32.5623 11.1818 34.7769 13.5649 34.7769 16.7189C34.7769 19.8729 32.5623 22.2215 29.5383 22.2215ZM40.1919 11.3914H42.8298V25.7617H47.0493V7.64027H40.1919V11.3914ZM9.42386 11.1804C11.6398 11.1804 13.3979 12.5471 14.0653 14.5799H18.5317C17.7223 10.2343 14.1357 7.28997 9.45969 7.28997C4.14945 7.28997 0.000244141 11.3211 0.000244141 16.7189C0.000244141 22.1167 4.04462 26.112 9.45969 26.112C14.0308 26.112 17.6878 23.1676 18.4972 18.7862H14.0653C13.4324 20.819 11.6743 22.2215 9.45836 22.2215C6.39854 22.2215 4.25427 19.8729 4.25427 16.7189C4.2556 13.529 6.36536 11.1804 9.42386 11.1804ZM120.366 14.9661L117.271 14.5109C115.794 14.3013 114.74 13.8103 114.74 12.6533C114.74 11.3914 116.112 10.7611 117.975 10.7611C120.014 10.7611 121.316 11.6369 121.597 13.0739H125.676C125.218 9.42892 122.405 7.29129 118.081 7.29129C113.614 7.29129 110.661 9.56957 110.661 12.7939C110.661 15.8776 112.595 17.6663 116.498 18.2262L119.592 18.6814C121.105 18.891 121.949 19.4881 121.949 20.6094C121.949 22.0464 120.472 22.6422 118.432 22.6422C115.935 22.6422 114.529 21.6258 114.318 20.0839H110.168C110.556 23.6241 113.333 26.112 118.397 26.112C123.004 26.112 126.062 24.0089 126.062 20.3984C126.062 17.174 123.847 15.4915 120.366 14.9661ZM44.9396 0.17515C43.3924 0.17515 42.2314 1.29638 42.2314 2.83823C42.2314 4.38008 43.3911 5.50131 44.9396 5.50131C46.4867 5.50131 47.6478 4.38008 47.6478 2.83823C47.6478 1.29638 46.4867 0.17515 44.9396 0.17515ZM106.863 13.8448C106.863 9.91988 104.472 7.29129 99.4086 7.29129C94.6265 7.29129 91.9541 9.71023 91.426 13.4255H95.6111C95.822 11.9885 96.9473 10.797 99.3383 10.797C101.484 10.797 102.539 11.743 102.539 12.9001C102.539 14.4074 100.604 14.7922 98.2131 15.0377C94.9781 15.388 90.9696 16.5092 90.9696 20.7155C90.9696 23.9757 93.3965 26.0775 97.2644 26.0775C100.288 26.0775 102.187 24.8156 103.137 22.8173C103.278 24.6046 104.614 25.7617 106.478 25.7617H108.94V22.0119H106.864V13.8448H106.863ZM102.714 18.4014C102.714 20.8203 100.604 22.6077 98.0366 22.6077C96.4537 22.6077 95.1175 21.9416 95.1175 20.5404C95.1175 18.753 97.2631 18.2621 99.2322 18.0524C101.131 17.8773 102.186 17.4566 102.714 16.6499V18.4014ZM80.3146 7.28997C77.958 7.28997 75.9889 8.27187 74.5824 9.91855V0H70.3629V25.7617H74.5121V23.3786C75.9186 25.0956 77.9235 26.112 80.3146 26.112C85.3781 26.112 89.2114 22.1167 89.2114 16.7189C89.2114 11.3211 85.3077 7.28997 80.3146 7.28997ZM79.6817 22.2215C76.6577 22.2215 74.4418 19.8729 74.4418 16.7189C74.4418 13.5649 76.6922 11.1818 79.7162 11.1818C82.776 11.1818 84.9203 13.5304 84.9203 16.7189C84.9203 19.8729 82.7057 22.2215 79.6817 22.2215ZM60.2705 7.28997C57.5278 7.28997 55.7339 8.41119 54.679 9.98887V7.64027H50.4939V25.7604H54.7135V15.9121C54.7135 13.1429 56.4716 11.1804 59.0737 11.1804C61.5006 11.1804 63.0119 12.8974 63.0119 15.3867V25.7617H67.2314V15.0722C67.2327 10.5143 64.8775 7.28997 60.2705 7.28997ZM146.176 16.1231C146.176 10.9363 142.379 7.29129 137.28 7.29129C131.865 7.29129 127.89 11.3569 127.89 16.7189C127.89 22.3622 132.146 26.112 137.35 26.112C141.746 26.112 145.192 23.5179 146.07 19.8384H141.674C141.041 21.4506 139.494 22.3622 137.419 22.3622C134.711 22.3622 132.671 20.6797 132.215 17.7353H146.175V16.1231H146.176ZM132.462 14.7206C133.13 12.1968 135.029 10.9708 137.209 10.9708C139.6 10.9708 141.429 12.3375 141.851 14.7206H132.462Z" fill="#F6F6F6"/>
</g>
<defs>
<clipPath id="clip0_186_826">
<rect width="146.176" height="26.112" fill="white"/>
</clipPath>
</defs>
</svg>
