<svg width="134" height="47" viewBox="0 0 134 47" fill="none" xmlns="http://www.w3.org/2000/svg">
<path d="M31.0651 40.3667C36.2249 40.3667 40.4077 36.1839 40.4077 31.0242C40.4077 25.8644 36.2249 21.6816 31.0651 21.6816C25.9054 21.6816 21.7226 25.8644 21.7226 31.0242C21.7226 36.1839 25.9054 40.3667 31.0651 40.3667Z" fill="#ADADAD"/>
<path d="M13.5049 35.3728C15.9067 35.3728 17.8537 33.4258 17.8537 31.0241C17.8537 28.6223 15.9067 26.6753 13.5049 26.6753C11.1032 26.6753 9.15616 28.6223 9.15616 31.0241C9.15616 33.4258 11.1032 35.3728 13.5049 35.3728Z" fill="#C4C4C4"/>
<path d="M31.066 19.4759C34.3871 19.4759 37.0793 16.7837 37.0793 13.4626C37.0793 10.1415 34.3871 7.44922 31.066 7.44922C27.7449 7.44922 25.0526 10.1415 25.0526 13.4626C25.0526 16.7837 27.7449 19.4759 31.066 19.4759Z" fill="#E6E6E6"/>
<path d="M13.504 21.1406C17.7444 21.1406 21.182 17.703 21.182 13.4626C21.182 9.2222 17.7444 5.78467 13.504 5.78467C9.26362 5.78467 5.82608 9.2222 5.82608 13.4626C5.82608 17.703 9.26362 21.1406 13.504 21.1406Z" fill="white"/>
<path d="M64.6974 35.322H69.5472L60.5654 10.8657H57.0477L48.0643 35.3228H52.9145L54.6299 30.6544H62.982L64.6974 35.3228L55.9807 26.974L58.8064 19.2836L61.6304 26.974H55.9807L64.6974 35.322ZM81.5697 18.6252L77.1065 30.7743L72.6454 18.6252H68.0886L74.2235 35.322H79.9905L86.1245 18.6252H81.5689M88.0317 18.6252H92.5885V35.322H88.0317V18.6252Z" fill="#F3F3F3"/>
<path d="M90.3244 16.7295C91.9447 16.7295 93.2582 15.416 93.2582 13.7957C93.2582 12.1753 91.9447 10.8618 90.3244 10.8618C88.704 10.8618 87.3905 12.1753 87.3905 13.7957C87.3905 15.416 88.704 16.7295 90.3244 16.7295Z" fill="#F3F3F3"/>
<path d="M108.677 22.3051V18.6255H103.218V14.0195H98.6643V18.6255H95.0604V22.3051H98.6643V29.4886C98.6643 33.194 100.517 35.6672 105.248 35.6672C107.075 35.6672 108.677 34.9964 108.677 34.9964L108.123 31.3913C108.123 31.3913 107.227 31.6593 106.124 31.6593C104.772 31.6593 103.218 31.0766 103.218 29.2081V22.3046H108.677M119.126 31.5057C116.586 31.5057 114.527 29.4915 114.527 27.0071C114.527 24.5248 116.586 22.5102 119.125 22.5102C121.667 22.5102 123.725 24.5252 123.725 27.0075C123.725 29.492 121.667 31.5061 119.126 31.5061M119.126 18.1993C114.187 18.1993 110.182 22.1174 110.182 26.9468C110.182 31.7783 114.187 35.6942 119.126 35.6942C124.062 35.6942 128.068 31.7783 128.068 26.9468C128.068 22.1174 124.062 18.1993 119.125 18.1993" fill="#F3F3F3"/>
</svg>
